solid OpenSCAD_Model
  facet normal -1 0 0
    outer loop
      vertex 0 0 0
      vertex 0 0 44.8
      vertex 0 44.8 0
    endloop
  endfacet
  facet normal -1 0 0
    outer loop
      vertex 0 25.4 25.4
      vertex 0 0 44.8
      vertex 0 25.4 44.8
    endloop
  endfacet
  facet normal -1 0 0
    outer loop
      vertex 0 44.8 0
      vertex 0 0 44.8
      vertex 0 25.4 25.4
    endloop
  endfacet
  facet normal -1 0 0
    outer loop
      vertex 0 44.8 25.4
      vertex 0 44.8 0
      vertex 0 25.4 25.4
    endloop
  endfacet
  facet normal 0 -1 0
    outer loop
      vertex 0 0 44.8
      vertex 0 0 0
      vertex 44.8 0 0
    endloop
  endfacet
  facet normal 0 -1 0
    outer loop
      vertex 25.4 0 25.4
      vertex 0 0 44.8
      vertex 44.8 0 0
    endloop
  endfacet
  facet normal 0 -1 0
    outer loop
      vertex 44.8 0 25.4
      vertex 25.4 0 25.4
      vertex 44.8 0 0
    endloop
  endfacet
  facet normal 0 -1 0
    outer loop
      vertex 25.4 0 25.4
      vertex 25.4 0 44.8
      vertex 0 0 44.8
    endloop
  endfacet
  facet normal 0 0 -1
    outer loop
      vertex 0 0 0
      vertex 0 44.8 0
      vertex 44.8 0 0
    endloop
  endfacet
  facet normal 0 0 -1
    outer loop
      vertex 25.4 25.4 0
      vertex 0 44.8 0
      vertex 25.4 44.8 0
    endloop
  endfacet
  facet normal 0 0 -1
    outer loop
      vertex 44.8 0 0
      vertex 0 44.8 0
      vertex 25.4 25.4 0
    endloop
  endfacet
  facet normal 0 0 -1
    outer loop
      vertex 44.8 25.4 0
      vertex 44.8 0 0
      vertex 25.4 25.4 0
    endloop
  endfacet
  facet normal 0 1 0
    outer loop
      vertex 13.8185 44.8 23.3414
      vertex 0 44.8 25.4
      vertex 25.4 44.8 25.4
    endloop
  endfacet
  facet normal 0 1 0
    outer loop
      vertex 0 44.8 0
      vertex 0 44.8 25.4
      vertex 2 44.8 12.7
    endloop
  endfacet
  facet normal 0 1 0
    outer loop
      vertex 0 44.8 0
      vertex 2 44.8 12.7
      vertex 2.23382 44.8 10.4753
    endloop
  endfacet
  facet normal 0 1 0
    outer loop
      vertex 0 44.8 0
      vertex 2.23382 44.8 10.4753
      vertex 2.92506 44.8 8.34792
    endloop
  endfacet
  facet normal 0 1 0
    outer loop
      vertex 0 44.8 0
      vertex 2.92506 44.8 8.34792
      vertex 4.04352 44.8 6.4107
    endloop
  endfacet
  facet normal 0 1 0
    outer loop
      vertex 0 44.8 0
      vertex 4.04352 44.8 6.4107
      vertex 5.5403 44.8 4.74835
    endloop
  endfacet
  facet normal 0 1 0
    outer loop
      vertex 0 44.8 0
      vertex 5.5403 44.8 4.74835
      vertex 7.35 44.8 3.43353
    endloop
  endfacet
  facet normal 0 1 0
    outer loop
      vertex 0 44.8 0
      vertex 7.35 44.8 3.43353
      vertex 9.39352 44.8 2.5237
    endloop
  endfacet
  facet normal 0 1 0
    outer loop
      vertex 0 44.8 0
      vertex 9.39352 44.8 2.5237
      vertex 11.5815 44.8 2.05862
    endloop
  endfacet
  facet normal 0 1 0
    outer loop
      vertex 0 44.8 0
      vertex 11.5815 44.8 2.05862
      vertex 25.4 44.8 0
    endloop
  endfacet
  facet normal 0 1 0
    outer loop
      vertex 16.0065 44.8 2.5237
      vertex 25.4 44.8 0
      vertex 13.8185 44.8 2.05862
    endloop
  endfacet
  facet normal 0 1 0
    outer loop
      vertex 18.05 44.8 3.43353
      vertex 25.4 44.8 0
      vertex 16.0065 44.8 2.5237
    endloop
  endfacet
  facet normal 0 1 0
    outer loop
      vertex 19.8597 44.8 4.74835
      vertex 25.4 44.8 0
      vertex 18.05 44.8 3.43353
    endloop
  endfacet
  facet normal 0 1 0
    outer loop
      vertex 21.3565 44.8 6.4107
      vertex 25.4 44.8 0
      vertex 19.8597 44.8 4.74835
    endloop
  endfacet
  facet normal 0 1 0
    outer loop
      vertex 23.1662 44.8 14.9247
      vertex 25.4 44.8 25.4
      vertex 23.4 44.8 12.7
    endloop
  endfacet
  facet normal 0 1 0
    outer loop
      vertex 25.4 44.8 0
      vertex 21.3565 44.8 6.4107
      vertex 22.4749 44.8 8.34792
    endloop
  endfacet
  facet normal 0 1 0
    outer loop
      vertex 25.4 44.8 0
      vertex 22.4749 44.8 8.34792
      vertex 23.1662 44.8 10.4753
    endloop
  endfacet
  facet normal 0 1 0
    outer loop
      vertex 25.4 44.8 0
      vertex 23.1662 44.8 10.4753
      vertex 25.4 44.8 25.4
    endloop
  endfacet
  facet normal 0 1 0
    outer loop
      vertex 23.1662 44.8 10.4753
      vertex 23.4 44.8 12.7
      vertex 25.4 44.8 25.4
    endloop
  endfacet
  facet normal 0 1 0
    outer loop
      vertex 4.04352 44.8 18.9893
      vertex 0 44.8 25.4
      vertex 5.5403 44.8 20.6517
    endloop
  endfacet
  facet normal 0 1 0
    outer loop
      vertex 11.5815 44.8 23.3414
      vertex 0 44.8 25.4
      vertex 13.8185 44.8 23.3414
    endloop
  endfacet
  facet normal 0 1 0
    outer loop
      vertex 23.1662 44.8 14.9247
      vertex 22.4749 44.8 17.0521
      vertex 25.4 44.8 25.4
    endloop
  endfacet
  facet normal 0 1 0
    outer loop
      vertex 22.4749 44.8 17.0521
      vertex 21.3565 44.8 18.9893
      vertex 25.4 44.8 25.4
    endloop
  endfacet
  facet normal 0 1 0
    outer loop
      vertex 7.35 44.8 21.9665
      vertex 0 44.8 25.4
      vertex 9.39352 44.8 22.8763
    endloop
  endfacet
  facet normal 0 1 0
    outer loop
      vertex 21.3565 44.8 18.9893
      vertex 19.8597 44.8 20.6517
      vertex 25.4 44.8 25.4
    endloop
  endfacet
  facet normal 0 1 0
    outer loop
      vertex 19.8597 44.8 20.6517
      vertex 18.05 44.8 21.9665
      vertex 25.4 44.8 25.4
    endloop
  endfacet
  facet normal 0 1 0
    outer loop
      vertex 9.39352 44.8 22.8763
      vertex 0 44.8 25.4
      vertex 11.5815 44.8 23.3414
    endloop
  endfacet
  facet normal 0 1 0
    outer loop
      vertex 18.05 44.8 21.9665
      vertex 16.0065 44.8 22.8763
      vertex 25.4 44.8 25.4
    endloop
  endfacet
  facet normal 0 1 0
    outer loop
      vertex 16.0065 44.8 22.8763
      vertex 13.8185 44.8 23.3414
      vertex 25.4 44.8 25.4
    endloop
  endfacet
  facet normal 0 1 0
    outer loop
      vertex 5.5403 44.8 20.6517
      vertex 0 44.8 25.4
      vertex 7.35 44.8 21.9665
    endloop
  endfacet
  facet normal 0 1 0
    outer loop
      vertex 2.92506 44.8 17.0521
      vertex 0 44.8 25.4
      vertex 4.04352 44.8 18.9893
    endloop
  endfacet
  facet normal 0 1 0
    outer loop
      vertex 2.23382 44.8 14.9247
      vertex 0 44.8 25.4
      vertex 2.92506 44.8 17.0521
    endloop
  endfacet
  facet normal 0 1 0
    outer loop
      vertex 2 44.8 12.7
      vertex 0 44.8 25.4
      vertex 2.23382 44.8 14.9247
    endloop
  endfacet
  facet normal 0 1 0
    outer loop
      vertex 13.8185 44.8 2.05862
      vertex 25.4 44.8 0
      vertex 11.5815 44.8 2.05862
    endloop
  endfacet
  facet normal 0 0 1
    outer loop
      vertex 25.4 25.4 25.4
      vertex 25.4 44.8 25.4
      vertex 0 44.8 25.4
    endloop
  endfacet
  facet normal 0 0 1
    outer loop
      vertex 0 25.4 25.4
      vertex 25.4 25.4 25.4
      vertex 0 44.8 25.4
    endloop
  endfacet
  facet normal 0 1 0
    outer loop
      vertex 25.4 25.4 44.8
      vertex 25.4 25.4 25.4
      vertex 0 25.4 44.8
    endloop
  endfacet
  facet normal 0 1 0
    outer loop
      vertex 0 25.4 44.8
      vertex 25.4 25.4 25.4
      vertex 0 25.4 25.4
    endloop
  endfacet
  facet normal 0 0 1
    outer loop
      vertex 13.8185 2.05862 44.8
      vertex 0 0 44.8
      vertex 25.4 0 44.8
    endloop
  endfacet
  facet normal 0 0 1
    outer loop
      vertex 13.8185 2.05862 44.8
      vertex 11.5815 2.05862 44.8
      vertex 0 0 44.8
    endloop
  endfacet
  facet normal 0 0 1
    outer loop
      vertex 0 25.4 44.8
      vertex 0 0 44.8
      vertex 2.23382 10.4753 44.8
    endloop
  endfacet
  facet normal 0 0 1
    outer loop
      vertex 18.05 3.43353 44.8
      vertex 16.0065 2.5237 44.8
      vertex 25.4 0 44.8
    endloop
  endfacet
  facet normal 0 0 1
    outer loop
      vertex 0 25.4 44.8
      vertex 2.23382 10.4753 44.8
      vertex 2 12.7 44.8
    endloop
  endfacet
  facet normal 0 0 1
    outer loop
      vertex 0 25.4 44.8
      vertex 2 12.7 44.8
      vertex 2.23382 14.9247 44.8
    endloop
  endfacet
  facet normal 0 0 1
    outer loop
      vertex 0 25.4 44.8
      vertex 2.23382 14.9247 44.8
      vertex 2.92506 17.0521 44.8
    endloop
  endfacet
  facet normal 0 0 1
    outer loop
      vertex 11.5815 23.3414 44.8
      vertex 13.8185 23.3414 44.8
      vertex 25.4 25.4 44.8
    endloop
  endfacet
  facet normal 0 0 1
    outer loop
      vertex 0 25.4 44.8
      vertex 2.92506 17.0521 44.8
      vertex 4.04352 18.9893 44.8
    endloop
  endfacet
  facet normal 0 0 1
    outer loop
      vertex 7.35 21.9665 44.8
      vertex 0 25.4 44.8
      vertex 5.5403 20.6516 44.8
    endloop
  endfacet
  facet normal 0 0 1
    outer loop
      vertex 9.39352 22.8763 44.8
      vertex 0 25.4 44.8
      vertex 7.35 21.9665 44.8
    endloop
  endfacet
  facet normal 0 0 1
    outer loop
      vertex 11.5815 23.3414 44.8
      vertex 0 25.4 44.8
      vertex 9.39352 22.8763 44.8
    endloop
  endfacet
  facet normal 0 0 1
    outer loop
      vertex 25.4 25.4 44.8
      vertex 0 25.4 44.8
      vertex 11.5815 23.3414 44.8
    endloop
  endfacet
  facet normal 0 0 1
    outer loop
      vertex 23.4 12.7 44.8
      vertex 23.1662 10.4753 44.8
      vertex 25.4 0 44.8
    endloop
  endfacet
  facet normal 0 0 1
    outer loop
      vertex 22.4749 8.34792 44.8
      vertex 21.3565 6.4107 44.8
      vertex 25.4 0 44.8
    endloop
  endfacet
  facet normal 0 0 1
    outer loop
      vertex 25.4 25.4 44.8
      vertex 16.0065 22.8763 44.8
      vertex 18.05 21.9665 44.8
    endloop
  endfacet
  facet normal 0 0 1
    outer loop
      vertex 21.3565 6.4107 44.8
      vertex 19.8597 4.74835 44.8
      vertex 25.4 0 44.8
    endloop
  endfacet
  facet normal 0 0 1
    outer loop
      vertex 25.4 25.4 44.8
      vertex 18.05 21.9665 44.8
      vertex 19.8597 20.6516 44.8
    endloop
  endfacet
  facet normal 0 0 1
    outer loop
      vertex 25.4 25.4 44.8
      vertex 19.8597 20.6516 44.8
      vertex 21.3565 18.9893 44.8
    endloop
  endfacet
  facet normal 0 0 1
    outer loop
      vertex 23.1662 10.4753 44.8
      vertex 22.4749 8.34792 44.8
      vertex 25.4 0 44.8
    endloop
  endfacet
  facet normal 0 0 1
    outer loop
      vertex 25.4 25.4 44.8
      vertex 21.3565 18.9893 44.8
      vertex 22.4749 17.0521 44.8
    endloop
  endfacet
  facet normal 0 0 1
    outer loop
      vertex 25.4 25.4 44.8
      vertex 23.1662 14.9247 44.8
      vertex 25.4 0 44.8
    endloop
  endfacet
  facet normal 0 0 1
    outer loop
      vertex 25.4 25.4 44.8
      vertex 22.4749 17.0521 44.8
      vertex 23.1662 14.9247 44.8
    endloop
  endfacet
  facet normal 0 0 1
    outer loop
      vertex 23.1662 14.9247 44.8
      vertex 23.4 12.7 44.8
      vertex 25.4 0 44.8
    endloop
  endfacet
  facet normal 0 0 1
    outer loop
      vertex 16.0065 2.5237 44.8
      vertex 13.8185 2.05862 44.8
      vertex 25.4 0 44.8
    endloop
  endfacet
  facet normal 0 0 1
    outer loop
      vertex 9.39352 2.5237 44.8
      vertex 0 0 44.8
      vertex 11.5815 2.05862 44.8
    endloop
  endfacet
  facet normal 0 0 1
    outer loop
      vertex 7.35 3.43353 44.8
      vertex 0 0 44.8
      vertex 9.39352 2.5237 44.8
    endloop
  endfacet
  facet normal 0 0 1
    outer loop
      vertex 5.5403 4.74835 44.8
      vertex 0 0 44.8
      vertex 7.35 3.43353 44.8
    endloop
  endfacet
  facet normal 0 0 1
    outer loop
      vertex 4.04352 6.4107 44.8
      vertex 0 0 44.8
      vertex 5.5403 4.74835 44.8
    endloop
  endfacet
  facet normal 0 0 1
    outer loop
      vertex 2.92506 8.34792 44.8
      vertex 0 0 44.8
      vertex 4.04352 6.4107 44.8
    endloop
  endfacet
  facet normal 0 0 1
    outer loop
      vertex 2.23382 10.4753 44.8
      vertex 0 0 44.8
      vertex 2.92506 8.34792 44.8
    endloop
  endfacet
  facet normal 0 0 1
    outer loop
      vertex 4.04352 18.9893 44.8
      vertex 5.5403 20.6516 44.8
      vertex 0 25.4 44.8
    endloop
  endfacet
  facet normal 0 0 1
    outer loop
      vertex 13.8185 23.3414 44.8
      vertex 16.0065 22.8763 44.8
      vertex 25.4 25.4 44.8
    endloop
  endfacet
  facet normal 0 0 1
    outer loop
      vertex 19.8597 4.74835 44.8
      vertex 18.05 3.43353 44.8
      vertex 25.4 0 44.8
    endloop
  endfacet
  facet normal 1 0 0
    outer loop
      vertex 25.4 25.4 25.4
      vertex 25.4 25.4 44.8
      vertex 25.4 0 44.8
    endloop
  endfacet
  facet normal 1 0 0
    outer loop
      vertex 25.4 0 25.4
      vertex 25.4 25.4 25.4
      vertex 25.4 0 44.8
    endloop
  endfacet
  facet normal 0 0 1
    outer loop
      vertex 44.8 0 25.4
      vertex 44.8 25.4 25.4
      vertex 25.4 25.4 25.4
    endloop
  endfacet
  facet normal 0 0 1
    outer loop
      vertex 25.4 0 25.4
      vertex 44.8 0 25.4
      vertex 25.4 25.4 25.4
    endloop
  endfacet
  facet normal 1 0 0
    outer loop
      vertex 44.8 14.9247 2.23382
      vertex 44.8 0 0
      vertex 44.8 25.4 0
    endloop
  endfacet
  facet normal 1 0 0
    outer loop
      vertex 44.8 12.7 2
      vertex 44.8 10.4753 2.23382
      vertex 44.8 0 0
    endloop
  endfacet
  facet normal 1 0 0
    outer loop
      vertex 44.8 0 25.4
      vertex 44.8 0 0
      vertex 44.8 2.05862 11.5815
    endloop
  endfacet
  facet normal 1 0 0
    outer loop
      vertex 44.8 0 25.4
      vertex 44.8 2.05862 11.5815
      vertex 44.8 2.05862 13.8185
    endloop
  endfacet
  facet normal 1 0 0
    outer loop
      vertex 44.8 0 25.4
      vertex 44.8 2.05862 13.8185
      vertex 44.8 2.5237 16.0065
    endloop
  endfacet
  facet normal 1 0 0
    outer loop
      vertex 44.8 18.9893 4.04352
      vertex 44.8 17.0521 2.92506
      vertex 44.8 25.4 0
    endloop
  endfacet
  facet normal 1 0 0
    outer loop
      vertex 44.8 0 25.4
      vertex 44.8 2.5237 16.0065
      vertex 44.8 3.43353 18.05
    endloop
  endfacet
  facet normal 1 0 0
    outer loop
      vertex 44.8 0 25.4
      vertex 44.8 3.43353 18.05
      vertex 44.8 4.74835 19.8597
    endloop
  endfacet
  facet normal 1 0 0
    outer loop
      vertex 44.8 8.34792 22.4749
      vertex 44.8 0 25.4
      vertex 44.8 6.4107 21.3565
    endloop
  endfacet
  facet normal 1 0 0
    outer loop
      vertex 44.8 23.3414 13.8185
      vertex 44.8 23.3414 11.5815
      vertex 44.8 25.4 0
    endloop
  endfacet
  facet normal 1 0 0
    outer loop
      vertex 44.8 10.4753 23.1662
      vertex 44.8 0 25.4
      vertex 44.8 8.34792 22.4749
    endloop
  endfacet
  facet normal 1 0 0
    outer loop
      vertex 44.8 25.4 25.4
      vertex 44.8 0 25.4
      vertex 44.8 10.4753 23.1662
    endloop
  endfacet
  facet normal 1 0 0
    outer loop
      vertex 44.8 23.3414 11.5815
      vertex 44.8 22.8763 9.39352
      vertex 44.8 25.4 0
    endloop
  endfacet
  facet normal 1 0 0
    outer loop
      vertex 44.8 25.4 25.4
      vertex 44.8 10.4753 23.1662
      vertex 44.8 12.7 23.4
    endloop
  endfacet
  facet normal 1 0 0
    outer loop
      vertex 44.8 25.4 25.4
      vertex 44.8 14.9247 23.1662
      vertex 44.8 17.0521 22.4749
    endloop
  endfacet
  facet normal 1 0 0
    outer loop
      vertex 44.8 25.4 25.4
      vertex 44.8 17.0521 22.4749
      vertex 44.8 18.9893 21.3565
    endloop
  endfacet
  facet normal 1 0 0
    outer loop
      vertex 44.8 25.4 25.4
      vertex 44.8 18.9893 21.3565
      vertex 44.8 20.6516 19.8597
    endloop
  endfacet
  facet normal 1 0 0
    outer loop
      vertex 44.8 25.4 25.4
      vertex 44.8 20.6516 19.8597
      vertex 44.8 21.9665 18.05
    endloop
  endfacet
  facet normal 1 0 0
    outer loop
      vertex 44.8 25.4 25.4
      vertex 44.8 21.9665 18.05
      vertex 44.8 22.8763 16.0065
    endloop
  endfacet
  facet normal 1 0 0
    outer loop
      vertex 44.8 25.4 25.4
      vertex 44.8 23.3414 13.8185
      vertex 44.8 25.4 0
    endloop
  endfacet
  facet normal 1 0 0
    outer loop
      vertex 44.8 25.4 25.4
      vertex 44.8 22.8763 16.0065
      vertex 44.8 23.3414 13.8185
    endloop
  endfacet
  facet normal 1 0 0
    outer loop
      vertex 44.8 21.9665 7.35
      vertex 44.8 20.6516 5.5403
      vertex 44.8 25.4 0
    endloop
  endfacet
  facet normal 1 0 0
    outer loop
      vertex 44.8 17.0521 2.92506
      vertex 44.8 14.9247 2.23382
      vertex 44.8 25.4 0
    endloop
  endfacet
  facet normal 1 0 0
    outer loop
      vertex 44.8 12.7 2
      vertex 44.8 0 0
      vertex 44.8 14.9247 2.23382
    endloop
  endfacet
  facet normal 1 0 0
    outer loop
      vertex 44.8 8.34792 2.92506
      vertex 44.8 0 0
      vertex 44.8 10.4753 2.23382
    endloop
  endfacet
  facet normal 1 0 0
    outer loop
      vertex 44.8 6.4107 4.04352
      vertex 44.8 0 0
      vertex 44.8 8.34792 2.92506
    endloop
  endfacet
  facet normal 1 0 0
    outer loop
      vertex 44.8 4.74835 5.5403
      vertex 44.8 0 0
      vertex 44.8 6.4107 4.04352
    endloop
  endfacet
  facet normal 1 0 0
    outer loop
      vertex 44.8 3.43353 7.35
      vertex 44.8 0 0
      vertex 44.8 4.74835 5.5403
    endloop
  endfacet
  facet normal 1 0 0
    outer loop
      vertex 44.8 2.5237 9.39352
      vertex 44.8 0 0
      vertex 44.8 3.43353 7.35
    endloop
  endfacet
  facet normal 1 0 0
    outer loop
      vertex 44.8 2.05862 11.5815
      vertex 44.8 0 0
      vertex 44.8 2.5237 9.39352
    endloop
  endfacet
  facet normal 1 0 0
    outer loop
      vertex 44.8 4.74835 19.8597
      vertex 44.8 6.4107 21.3565
      vertex 44.8 0 25.4
    endloop
  endfacet
  facet normal 1 0 0
    outer loop
      vertex 44.8 12.7 23.4
      vertex 44.8 14.9247 23.1662
      vertex 44.8 25.4 25.4
    endloop
  endfacet
  facet normal 1 0 0
    outer loop
      vertex 44.8 22.8763 9.39352
      vertex 44.8 21.9665 7.35
      vertex 44.8 25.4 0
    endloop
  endfacet
  facet normal 1 0 0
    outer loop
      vertex 44.8 20.6516 5.5403
      vertex 44.8 18.9893 4.04352
      vertex 44.8 25.4 0
    endloop
  endfacet
  facet normal 0 1 0
    outer loop
      vertex 44.8 25.4 25.4
      vertex 44.8 25.4 0
      vertex 25.4 25.4 25.4
    endloop
  endfacet
  facet normal 0 1 0
    outer loop
      vertex 25.4 25.4 25.4
      vertex 44.8 25.4 0
      vertex 25.4 25.4 0
    endloop
  endfacet
  facet normal 1 0 0
    outer loop
      vertex 25.4 44.8 0
      vertex 25.4 44.8 25.4
      vertex 25.4 25.4 25.4
    endloop
  endfacet
  facet normal 1 0 0
    outer loop
      vertex 25.4 25.4 0
      vertex 25.4 44.8 0
      vertex 25.4 25.4 25.4
    endloop
  endfacet
  facet normal 0.994522 2.321e-17 -0.104529
    outer loop
      vertex 2 44.8 12.7
      vertex 2.23382 44.8 14.9247
      vertex 2.23382 24.4 14.9247
    endloop
  endfacet
  facet normal 0.994522 2.321e-17 -0.104529
    outer loop
      vertex 2 24.4 12.7
      vertex 2 44.8 12.7
      vertex 2.23382 24.4 14.9247
    endloop
  endfacet
  facet normal 0.994522 -2.321e-17 0.104529
    outer loop
      vertex 2.23382 24.4 10.4753
      vertex 2.23382 44.8 10.4753
      vertex 2 44.8 12.7
    endloop
  endfacet
  facet normal 0.994522 -2.321e-17 0.104529
    outer loop
      vertex 2 24.4 12.7
      vertex 2.23382 24.4 10.4753
      vertex 2 44.8 12.7
    endloop
  endfacet
  facet normal 0.951057 6.86156e-17 -0.309017
    outer loop
      vertex 2.23382 44.8 14.9247
      vertex 2.92506 44.8 17.0521
      vertex 2.92506 24.4 17.0521
    endloop
  endfacet
  facet normal 0.951057 6.86156e-17 -0.309017
    outer loop
      vertex 2.23382 24.4 14.9247
      vertex 2.23382 44.8 14.9247
      vertex 2.92506 24.4 17.0521
    endloop
  endfacet
  facet normal 0.866025 1.11022e-16 -0.5
    outer loop
      vertex 2.92506 44.8 17.0521
      vertex 4.04352 44.8 18.9893
      vertex 4.04352 24.4 18.9893
    endloop
  endfacet
  facet normal 0.866025 1.11022e-16 -0.5
    outer loop
      vertex 2.92506 24.4 17.0521
      vertex 2.92506 44.8 17.0521
      vertex 4.04352 24.4 18.9893
    endloop
  endfacet
  facet normal 0.743145 1.48577e-16 -0.669131
    outer loop
      vertex 4.04352 44.8 18.9893
      vertex 5.5403 44.8 20.6517
      vertex 5.5403 24.4 20.6516
    endloop
  endfacet
  facet normal 0.743145 1.48577e-16 -0.669131
    outer loop
      vertex 4.04352 24.4 18.9893
      vertex 4.04352 44.8 18.9893
      vertex 5.5403 24.4 20.6516
    endloop
  endfacet
  facet normal 0.587785 1.79638e-16 -0.809017
    outer loop
      vertex 7.35 44.8 21.9665
      vertex 7.35 24.4 21.9665
      vertex 5.5403 44.8 20.6517
    endloop
  endfacet
  facet normal 0.587785 1.79638e-16 -0.809017
    outer loop
      vertex 5.5403 44.8 20.6517
      vertex 7.35 24.4 21.9665
      vertex 5.5403 24.4 20.6516
    endloop
  endfacet
  facet normal 0.406737 2.02848e-16 -0.913545
    outer loop
      vertex 9.39352 44.8 22.8763
      vertex 9.39352 24.4 22.8763
      vertex 7.35 44.8 21.9665
    endloop
  endfacet
  facet normal 0.406737 2.02848e-16 -0.913545
    outer loop
      vertex 7.35 44.8 21.9665
      vertex 9.39352 24.4 22.8763
      vertex 7.35 24.4 21.9665
    endloop
  endfacet
  facet normal 0.207911 2.17192e-16 -0.978148
    outer loop
      vertex 11.5815 44.8 23.3414
      vertex 11.5815 24.4 23.3414
      vertex 9.39352 44.8 22.8763
    endloop
  endfacet
  facet normal 0.207911 2.17192e-16 -0.978148
    outer loop
      vertex 9.39352 44.8 22.8763
      vertex 11.5815 24.4 23.3414
      vertex 9.39352 24.4 22.8763
    endloop
  endfacet
  facet normal 0 2.22045e-16 -1
    outer loop
      vertex 13.8185 44.8 23.3414
      vertex 13.8185 24.4 23.3414
      vertex 11.5815 44.8 23.3414
    endloop
  endfacet
  facet normal 0 2.22045e-16 -1
    outer loop
      vertex 11.5815 44.8 23.3414
      vertex 13.8185 24.4 23.3414
      vertex 11.5815 24.4 23.3414
    endloop
  endfacet
  facet normal -0.207911 2.17192e-16 -0.978148
    outer loop
      vertex 16.0065 44.8 22.8763
      vertex 16.0065 24.4 22.8763
      vertex 13.8185 44.8 23.3414
    endloop
  endfacet
  facet normal -0.207911 2.17192e-16 -0.978148
    outer loop
      vertex 13.8185 44.8 23.3414
      vertex 16.0065 24.4 22.8763
      vertex 13.8185 24.4 23.3414
    endloop
  endfacet
  facet normal -0.406737 2.02848e-16 -0.913545
    outer loop
      vertex 18.05 44.8 21.9665
      vertex 18.05 24.4 21.9665
      vertex 16.0065 44.8 22.8763
    endloop
  endfacet
  facet normal -0.406737 2.02848e-16 -0.913545
    outer loop
      vertex 16.0065 44.8 22.8763
      vertex 18.05 24.4 21.9665
      vertex 16.0065 24.4 22.8763
    endloop
  endfacet
  facet normal -0.587785 1.79638e-16 -0.809017
    outer loop
      vertex 19.8597 44.8 20.6517
      vertex 19.8597 24.4 20.6516
      vertex 18.05 44.8 21.9665
    endloop
  endfacet
  facet normal -0.587785 1.79638e-16 -0.809017
    outer loop
      vertex 18.05 44.8 21.9665
      vertex 19.8597 24.4 20.6516
      vertex 18.05 24.4 21.9665
    endloop
  endfacet
  facet normal -0.743145 1.48577e-16 -0.669131
    outer loop
      vertex 21.3565 44.8 18.9893
      vertex 21.3565 24.4 18.9893
      vertex 19.8597 44.8 20.6517
    endloop
  endfacet
  facet normal -0.743145 1.48577e-16 -0.669131
    outer loop
      vertex 19.8597 44.8 20.6517
      vertex 21.3565 24.4 18.9893
      vertex 19.8597 24.4 20.6516
    endloop
  endfacet
  facet normal -0.866025 1.11022e-16 -0.5
    outer loop
      vertex 22.4749 44.8 17.0521
      vertex 22.4749 24.4 17.0521
      vertex 21.3565 44.8 18.9893
    endloop
  endfacet
  facet normal -0.866025 1.11022e-16 -0.5
    outer loop
      vertex 21.3565 44.8 18.9893
      vertex 22.4749 24.4 17.0521
      vertex 21.3565 24.4 18.9893
    endloop
  endfacet
  facet normal -0.951057 6.86156e-17 -0.309017
    outer loop
      vertex 23.1662 44.8 14.9247
      vertex 23.1662 24.4 14.9247
      vertex 22.4749 44.8 17.0521
    endloop
  endfacet
  facet normal -0.951057 6.86156e-17 -0.309017
    outer loop
      vertex 22.4749 44.8 17.0521
      vertex 23.1662 24.4 14.9247
      vertex 22.4749 24.4 17.0521
    endloop
  endfacet
  facet normal -0.994522 2.321e-17 -0.104529
    outer loop
      vertex 23.4 44.8 12.7
      vertex 23.4 24.4 12.7
      vertex 23.1662 44.8 14.9247
    endloop
  endfacet
  facet normal -0.994522 2.321e-17 -0.104529
    outer loop
      vertex 23.1662 44.8 14.9247
      vertex 23.4 24.4 12.7
      vertex 23.1662 24.4 14.9247
    endloop
  endfacet
  facet normal -0.994522 -2.321e-17 0.104529
    outer loop
      vertex 23.4 44.8 12.7
      vertex 23.1662 44.8 10.4753
      vertex 23.4 24.4 12.7
    endloop
  endfacet
  facet normal -0.994522 -2.321e-17 0.104529
    outer loop
      vertex 23.4 24.4 12.7
      vertex 23.1662 44.8 10.4753
      vertex 23.1662 24.4 10.4753
    endloop
  endfacet
  facet normal -0.951057 -6.86156e-17 0.309017
    outer loop
      vertex 23.1662 44.8 10.4753
      vertex 22.4749 44.8 8.34792
      vertex 23.1662 24.4 10.4753
    endloop
  endfacet
  facet normal -0.951057 -6.86156e-17 0.309017
    outer loop
      vertex 23.1662 24.4 10.4753
      vertex 22.4749 44.8 8.34792
      vertex 22.4749 24.4 8.34792
    endloop
  endfacet
  facet normal -0.866025 -1.11022e-16 0.5
    outer loop
      vertex 22.4749 44.8 8.34792
      vertex 21.3565 44.8 6.4107
      vertex 22.4749 24.4 8.34792
    endloop
  endfacet
  facet normal -0.866025 -1.11022e-16 0.5
    outer loop
      vertex 22.4749 24.4 8.34792
      vertex 21.3565 44.8 6.4107
      vertex 21.3565 24.4 6.4107
    endloop
  endfacet
  facet normal -0.743145 -1.48577e-16 0.669131
    outer loop
      vertex 21.3565 44.8 6.4107
      vertex 19.8597 44.8 4.74835
      vertex 21.3565 24.4 6.4107
    endloop
  endfacet
  facet normal -0.743145 -1.48577e-16 0.669131
    outer loop
      vertex 21.3565 24.4 6.4107
      vertex 19.8597 44.8 4.74835
      vertex 19.8597 24.4 4.74835
    endloop
  endfacet
  facet normal -0.587785 -1.79638e-16 0.809017
    outer loop
      vertex 19.8597 24.4 4.74835
      vertex 19.8597 44.8 4.74835
      vertex 18.05 44.8 3.43353
    endloop
  endfacet
  facet normal -0.587785 -1.79638e-16 0.809017
    outer loop
      vertex 18.05 24.4 3.43353
      vertex 19.8597 24.4 4.74835
      vertex 18.05 44.8 3.43353
    endloop
  endfacet
  facet normal -0.406737 -2.02848e-16 0.913545
    outer loop
      vertex 18.05 24.4 3.43353
      vertex 18.05 44.8 3.43353
      vertex 16.0065 44.8 2.5237
    endloop
  endfacet
  facet normal -0.406737 -2.02848e-16 0.913545
    outer loop
      vertex 16.0065 24.4 2.5237
      vertex 18.05 24.4 3.43353
      vertex 16.0065 44.8 2.5237
    endloop
  endfacet
  facet normal -0.207911 -2.17192e-16 0.978148
    outer loop
      vertex 16.0065 24.4 2.5237
      vertex 16.0065 44.8 2.5237
      vertex 13.8185 44.8 2.05862
    endloop
  endfacet
  facet normal -0.207911 -2.17192e-16 0.978148
    outer loop
      vertex 13.8185 24.4 2.05862
      vertex 16.0065 24.4 2.5237
      vertex 13.8185 44.8 2.05862
    endloop
  endfacet
  facet normal 0 -2.22045e-16 1
    outer loop
      vertex 13.8185 24.4 2.05862
      vertex 13.8185 44.8 2.05862
      vertex 11.5815 44.8 2.05862
    endloop
  endfacet
  facet normal 0 -2.22045e-16 1
    outer loop
      vertex 11.5815 24.4 2.05862
      vertex 13.8185 24.4 2.05862
      vertex 11.5815 44.8 2.05862
    endloop
  endfacet
  facet normal 0.207911 -2.17192e-16 0.978148
    outer loop
      vertex 11.5815 24.4 2.05862
      vertex 11.5815 44.8 2.05862
      vertex 9.39352 44.8 2.5237
    endloop
  endfacet
  facet normal 0.207911 -2.17192e-16 0.978148
    outer loop
      vertex 9.39352 24.4 2.5237
      vertex 11.5815 24.4 2.05862
      vertex 9.39352 44.8 2.5237
    endloop
  endfacet
  facet normal 0.406737 -2.02848e-16 0.913545
    outer loop
      vertex 9.39352 24.4 2.5237
      vertex 9.39352 44.8 2.5237
      vertex 7.35 44.8 3.43353
    endloop
  endfacet
  facet normal 0.406737 -2.02848e-16 0.913545
    outer loop
      vertex 7.35 24.4 3.43353
      vertex 9.39352 24.4 2.5237
      vertex 7.35 44.8 3.43353
    endloop
  endfacet
  facet normal 0.587785 -1.79638e-16 0.809017
    outer loop
      vertex 7.35 24.4 3.43353
      vertex 7.35 44.8 3.43353
      vertex 5.5403 44.8 4.74835
    endloop
  endfacet
  facet normal 0.587785 -1.79638e-16 0.809017
    outer loop
      vertex 5.5403 24.4 4.74835
      vertex 7.35 24.4 3.43353
      vertex 5.5403 44.8 4.74835
    endloop
  endfacet
  facet normal 0.743145 -1.48577e-16 0.669131
    outer loop
      vertex 5.5403 24.4 4.74835
      vertex 5.5403 44.8 4.74835
      vertex 4.04352 44.8 6.4107
    endloop
  endfacet
  facet normal 0.743145 -1.48577e-16 0.669131
    outer loop
      vertex 4.04352 24.4 6.4107
      vertex 5.5403 24.4 4.74835
      vertex 4.04352 44.8 6.4107
    endloop
  endfacet
  facet normal 0.866025 -1.11022e-16 0.5
    outer loop
      vertex 4.04352 24.4 6.4107
      vertex 4.04352 44.8 6.4107
      vertex 2.92506 44.8 8.34792
    endloop
  endfacet
  facet normal 0.866025 -1.11022e-16 0.5
    outer loop
      vertex 2.92506 24.4 8.34792
      vertex 4.04352 24.4 6.4107
      vertex 2.92506 44.8 8.34792
    endloop
  endfacet
  facet normal 0.951057 -6.86156e-17 0.309017
    outer loop
      vertex 2.92506 24.4 8.34792
      vertex 2.92506 44.8 8.34792
      vertex 2.23382 44.8 10.4753
    endloop
  endfacet
  facet normal 0.951057 -6.86156e-17 0.309017
    outer loop
      vertex 2.23382 24.4 10.4753
      vertex 2.92506 24.4 8.34792
      vertex 2.23382 44.8 10.4753
    endloop
  endfacet
  facet normal 0.994522 0.104529 0
    outer loop
      vertex 2 12.7 44.8
      vertex 2.23382 10.4753 44.8
      vertex 2.23382 10.4753 24.4
    endloop
  endfacet
  facet normal 0.994522 0.104529 0
    outer loop
      vertex 2 12.7 24.4
      vertex 2 12.7 44.8
      vertex 2.23382 10.4753 24.4
    endloop
  endfacet
  facet normal 0.951057 0.309017 0
    outer loop
      vertex 2.23382 10.4753 44.8
      vertex 2.92506 8.34792 44.8
      vertex 2.92506 8.34792 24.4
    endloop
  endfacet
  facet normal 0.951057 0.309017 0
    outer loop
      vertex 2.23382 10.4753 24.4
      vertex 2.23382 10.4753 44.8
      vertex 2.92506 8.34792 24.4
    endloop
  endfacet
  facet normal 0.866025 0.5 0
    outer loop
      vertex 2.92506 8.34792 44.8
      vertex 4.04352 6.4107 44.8
      vertex 4.04352 6.4107 24.4
    endloop
  endfacet
  facet normal 0.866025 0.5 0
    outer loop
      vertex 2.92506 8.34792 24.4
      vertex 2.92506 8.34792 44.8
      vertex 4.04352 6.4107 24.4
    endloop
  endfacet
  facet normal 0.743145 0.669131 0
    outer loop
      vertex 4.04352 6.4107 44.8
      vertex 5.5403 4.74835 44.8
      vertex 5.5403 4.74835 24.4
    endloop
  endfacet
  facet normal 0.743145 0.669131 0
    outer loop
      vertex 4.04352 6.4107 24.4
      vertex 4.04352 6.4107 44.8
      vertex 5.5403 4.74835 24.4
    endloop
  endfacet
  facet normal 0.587785 0.809017 0
    outer loop
      vertex 7.35 3.43353 44.8
      vertex 7.35 3.43353 24.4
      vertex 5.5403 4.74835 44.8
    endloop
  endfacet
  facet normal 0.587785 0.809017 0
    outer loop
      vertex 5.5403 4.74835 44.8
      vertex 7.35 3.43353 24.4
      vertex 5.5403 4.74835 24.4
    endloop
  endfacet
  facet normal 0.406737 0.913545 0
    outer loop
      vertex 9.39352 2.5237 44.8
      vertex 9.39352 2.5237 24.4
      vertex 7.35 3.43353 44.8
    endloop
  endfacet
  facet normal 0.406737 0.913545 0
    outer loop
      vertex 7.35 3.43353 44.8
      vertex 9.39352 2.5237 24.4
      vertex 7.35 3.43353 24.4
    endloop
  endfacet
  facet normal 0.207911 0.978148 0
    outer loop
      vertex 11.5815 2.05862 44.8
      vertex 11.5815 2.05862 24.4
      vertex 9.39352 2.5237 44.8
    endloop
  endfacet
  facet normal 0.207911 0.978148 0
    outer loop
      vertex 9.39352 2.5237 44.8
      vertex 11.5815 2.05862 24.4
      vertex 9.39352 2.5237 24.4
    endloop
  endfacet
  facet normal 0 1 0
    outer loop
      vertex 13.8185 2.05862 44.8
      vertex 13.8185 2.05862 24.4
      vertex 11.5815 2.05862 44.8
    endloop
  endfacet
  facet normal 0 1 0
    outer loop
      vertex 11.5815 2.05862 44.8
      vertex 13.8185 2.05862 24.4
      vertex 11.5815 2.05862 24.4
    endloop
  endfacet
  facet normal -0.207911 0.978148 0
    outer loop
      vertex 16.0065 2.5237 44.8
      vertex 16.0065 2.5237 24.4
      vertex 13.8185 2.05862 44.8
    endloop
  endfacet
  facet normal -0.207911 0.978148 0
    outer loop
      vertex 13.8185 2.05862 44.8
      vertex 16.0065 2.5237 24.4
      vertex 13.8185 2.05862 24.4
    endloop
  endfacet
  facet normal -0.406737 0.913545 0
    outer loop
      vertex 18.05 3.43353 44.8
      vertex 18.05 3.43353 24.4
      vertex 16.0065 2.5237 44.8
    endloop
  endfacet
  facet normal -0.406737 0.913545 0
    outer loop
      vertex 16.0065 2.5237 44.8
      vertex 18.05 3.43353 24.4
      vertex 16.0065 2.5237 24.4
    endloop
  endfacet
  facet normal -0.587785 0.809017 0
    outer loop
      vertex 19.8597 4.74835 44.8
      vertex 19.8597 4.74835 24.4
      vertex 18.05 3.43353 44.8
    endloop
  endfacet
  facet normal -0.587785 0.809017 0
    outer loop
      vertex 18.05 3.43353 44.8
      vertex 19.8597 4.74835 24.4
      vertex 18.05 3.43353 24.4
    endloop
  endfacet
  facet normal -0.743145 0.669131 0
    outer loop
      vertex 21.3565 6.4107 44.8
      vertex 21.3565 6.4107 24.4
      vertex 19.8597 4.74835 44.8
    endloop
  endfacet
  facet normal -0.743145 0.669131 0
    outer loop
      vertex 19.8597 4.74835 44.8
      vertex 21.3565 6.4107 24.4
      vertex 19.8597 4.74835 24.4
    endloop
  endfacet
  facet normal -0.866025 0.5 0
    outer loop
      vertex 22.4749 8.34792 44.8
      vertex 22.4749 8.34792 24.4
      vertex 21.3565 6.4107 44.8
    endloop
  endfacet
  facet normal -0.866025 0.5 0
    outer loop
      vertex 21.3565 6.4107 44.8
      vertex 22.4749 8.34792 24.4
      vertex 21.3565 6.4107 24.4
    endloop
  endfacet
  facet normal -0.951057 0.309017 0
    outer loop
      vertex 23.1662 10.4753 44.8
      vertex 23.1662 10.4753 24.4
      vertex 22.4749 8.34792 44.8
    endloop
  endfacet
  facet normal -0.951057 0.309017 0
    outer loop
      vertex 22.4749 8.34792 44.8
      vertex 23.1662 10.4753 24.4
      vertex 22.4749 8.34792 24.4
    endloop
  endfacet
  facet normal -0.994522 0.104529 0
    outer loop
      vertex 23.4 12.7 44.8
      vertex 23.4 12.7 24.4
      vertex 23.1662 10.4753 44.8
    endloop
  endfacet
  facet normal -0.994522 0.104529 0
    outer loop
      vertex 23.1662 10.4753 44.8
      vertex 23.4 12.7 24.4
      vertex 23.1662 10.4753 24.4
    endloop
  endfacet
  facet normal -0.994522 -0.104529 0
    outer loop
      vertex 23.4 12.7 44.8
      vertex 23.1662 14.9247 44.8
      vertex 23.4 12.7 24.4
    endloop
  endfacet
  facet normal -0.994522 -0.104529 0
    outer loop
      vertex 23.4 12.7 24.4
      vertex 23.1662 14.9247 44.8
      vertex 23.1662 14.9247 24.4
    endloop
  endfacet
  facet normal -0.951057 -0.309017 0
    outer loop
      vertex 23.1662 14.9247 44.8
      vertex 22.4749 17.0521 44.8
      vertex 23.1662 14.9247 24.4
    endloop
  endfacet
  facet normal -0.951057 -0.309017 0
    outer loop
      vertex 23.1662 14.9247 24.4
      vertex 22.4749 17.0521 44.8
      vertex 22.4749 17.0521 24.4
    endloop
  endfacet
  facet normal -0.866025 -0.5 0
    outer loop
      vertex 22.4749 17.0521 44.8
      vertex 21.3565 18.9893 44.8
      vertex 22.4749 17.0521 24.4
    endloop
  endfacet
  facet normal -0.866025 -0.5 0
    outer loop
      vertex 22.4749 17.0521 24.4
      vertex 21.3565 18.9893 44.8
      vertex 21.3565 18.9893 24.4
    endloop
  endfacet
  facet normal -0.743145 -0.669131 0
    outer loop
      vertex 21.3565 18.9893 44.8
      vertex 19.8597 20.6516 44.8
      vertex 21.3565 18.9893 24.4
    endloop
  endfacet
  facet normal -0.743145 -0.669131 0
    outer loop
      vertex 21.3565 18.9893 24.4
      vertex 19.8597 20.6516 44.8
      vertex 19.8597 20.6516 24.4
    endloop
  endfacet
  facet normal -0.587785 -0.809017 0
    outer loop
      vertex 19.8597 20.6516 24.4
      vertex 19.8597 20.6516 44.8
      vertex 18.05 21.9665 44.8
    endloop
  endfacet
  facet normal -0.587785 -0.809017 0
    outer loop
      vertex 18.05 21.9665 24.4
      vertex 19.8597 20.6516 24.4
      vertex 18.05 21.9665 44.8
    endloop
  endfacet
  facet normal -0.406737 -0.913545 0
    outer loop
      vertex 18.05 21.9665 24.4
      vertex 18.05 21.9665 44.8
      vertex 16.0065 22.8763 44.8
    endloop
  endfacet
  facet normal -0.406737 -0.913545 0
    outer loop
      vertex 16.0065 22.8763 24.4
      vertex 18.05 21.9665 24.4
      vertex 16.0065 22.8763 44.8
    endloop
  endfacet
  facet normal -0.207911 -0.978148 0
    outer loop
      vertex 16.0065 22.8763 24.4
      vertex 16.0065 22.8763 44.8
      vertex 13.8185 23.3414 44.8
    endloop
  endfacet
  facet normal -0.207911 -0.978148 0
    outer loop
      vertex 13.8185 23.3414 24.4
      vertex 16.0065 22.8763 24.4
      vertex 13.8185 23.3414 44.8
    endloop
  endfacet
  facet normal 0 -1 0
    outer loop
      vertex 13.8185 23.3414 24.4
      vertex 13.8185 23.3414 44.8
      vertex 11.5815 23.3414 44.8
    endloop
  endfacet
  facet normal 0 -1 0
    outer loop
      vertex 11.5815 23.3414 24.4
      vertex 13.8185 23.3414 24.4
      vertex 11.5815 23.3414 44.8
    endloop
  endfacet
  facet normal 0.207911 -0.978148 0
    outer loop
      vertex 11.5815 23.3414 24.4
      vertex 11.5815 23.3414 44.8
      vertex 9.39352 22.8763 44.8
    endloop
  endfacet
  facet normal 0.207911 -0.978148 0
    outer loop
      vertex 9.39352 22.8763 24.4
      vertex 11.5815 23.3414 24.4
      vertex 9.39352 22.8763 44.8
    endloop
  endfacet
  facet normal 0.406737 -0.913545 0
    outer loop
      vertex 9.39352 22.8763 24.4
      vertex 9.39352 22.8763 44.8
      vertex 7.35 21.9665 44.8
    endloop
  endfacet
  facet normal 0.406737 -0.913545 0
    outer loop
      vertex 7.35 21.9665 24.4
      vertex 9.39352 22.8763 24.4
      vertex 7.35 21.9665 44.8
    endloop
  endfacet
  facet normal 0.587785 -0.809017 0
    outer loop
      vertex 7.35 21.9665 24.4
      vertex 7.35 21.9665 44.8
      vertex 5.5403 20.6516 44.8
    endloop
  endfacet
  facet normal 0.587785 -0.809017 0
    outer loop
      vertex 5.5403 20.6516 24.4
      vertex 7.35 21.9665 24.4
      vertex 5.5403 20.6516 44.8
    endloop
  endfacet
  facet normal 0.743145 -0.669131 0
    outer loop
      vertex 5.5403 20.6516 24.4
      vertex 5.5403 20.6516 44.8
      vertex 4.04352 18.9893 44.8
    endloop
  endfacet
  facet normal 0.743145 -0.669131 0
    outer loop
      vertex 4.04352 18.9893 24.4
      vertex 5.5403 20.6516 24.4
      vertex 4.04352 18.9893 44.8
    endloop
  endfacet
  facet normal 0.866025 -0.5 0
    outer loop
      vertex 4.04352 18.9893 24.4
      vertex 4.04352 18.9893 44.8
      vertex 2.92506 17.0521 44.8
    endloop
  endfacet
  facet normal 0.866025 -0.5 0
    outer loop
      vertex 2.92506 17.0521 24.4
      vertex 4.04352 18.9893 24.4
      vertex 2.92506 17.0521 44.8
    endloop
  endfacet
  facet normal 0.951057 -0.309017 0
    outer loop
      vertex 2.92506 17.0521 24.4
      vertex 2.92506 17.0521 44.8
      vertex 2.23382 14.9247 44.8
    endloop
  endfacet
  facet normal 0.951057 -0.309017 0
    outer loop
      vertex 2.23382 14.9247 24.4
      vertex 2.92506 17.0521 24.4
      vertex 2.23382 14.9247 44.8
    endloop
  endfacet
  facet normal 0.994522 -0.104529 0
    outer loop
      vertex 2.23382 14.9247 24.4
      vertex 2.23382 14.9247 44.8
      vertex 2 12.7 44.8
    endloop
  endfacet
  facet normal 0.994522 -0.104529 0
    outer loop
      vertex 2 12.7 24.4
      vertex 2.23382 14.9247 24.4
      vertex 2 12.7 44.8
    endloop
  endfacet
  facet normal -4.61656e-17 0.978148 0.207911
    outer loop
      vertex 44.8 2.5237 9.39352
      vertex 24.4 2.5237 9.39352
      vertex 44.8 2.05862 11.5815
    endloop
  endfacet
  facet normal -4.61656e-17 0.978148 0.207911
    outer loop
      vertex 44.8 2.05862 11.5815
      vertex 24.4 2.5237 9.39352
      vertex 24.4 2.05862 11.5815
    endloop
  endfacet
  facet normal 0 1 0
    outer loop
      vertex 44.8 2.05862 11.5815
      vertex 24.4 2.05862 11.5815
      vertex 44.8 2.05862 13.8185
    endloop
  endfacet
  facet normal 0 1 0
    outer loop
      vertex 44.8 2.05862 13.8185
      vertex 24.4 2.05862 11.5815
      vertex 24.4 2.05862 13.8185
    endloop
  endfacet
  facet normal -9.03137e-17 0.913545 0.406737
    outer loop
      vertex 44.8 3.43353 7.35
      vertex 24.4 3.43353 7.35
      vertex 44.8 2.5237 9.39352
    endloop
  endfacet
  facet normal -9.03137e-17 0.913545 0.406737
    outer loop
      vertex 44.8 2.5237 9.39352
      vertex 24.4 3.43353 7.35
      vertex 24.4 2.5237 9.39352
    endloop
  endfacet
  facet normal -1.30515e-16 0.809017 0.587785
    outer loop
      vertex 44.8 4.74835 5.5403
      vertex 24.4 4.74835 5.5403
      vertex 44.8 3.43353 7.35
    endloop
  endfacet
  facet normal -1.30515e-16 0.809017 0.587785
    outer loop
      vertex 44.8 3.43353 7.35
      vertex 24.4 4.74835 5.5403
      vertex 24.4 3.43353 7.35
    endloop
  endfacet
  facet normal -1.65011e-16 0.669131 0.743145
    outer loop
      vertex 44.8 4.74835 5.5403
      vertex 44.8 6.4107 4.04352
      vertex 24.4 6.4107 4.04352
    endloop
  endfacet
  facet normal -1.65011e-16 0.669131 0.743145
    outer loop
      vertex 24.4 4.74835 5.5403
      vertex 44.8 4.74835 5.5403
      vertex 24.4 6.4107 4.04352
    endloop
  endfacet
  facet normal -1.92296e-16 0.5 0.866025
    outer loop
      vertex 44.8 6.4107 4.04352
      vertex 44.8 8.34792 2.92506
      vertex 24.4 8.34792 2.92506
    endloop
  endfacet
  facet normal -1.92296e-16 0.5 0.866025
    outer loop
      vertex 24.4 6.4107 4.04352
      vertex 44.8 6.4107 4.04352
      vertex 24.4 8.34792 2.92506
    endloop
  endfacet
  facet normal -2.11177e-16 0.309017 0.951057
    outer loop
      vertex 44.8 8.34792 2.92506
      vertex 44.8 10.4753 2.23382
      vertex 24.4 10.4753 2.23382
    endloop
  endfacet
  facet normal -2.11177e-16 0.309017 0.951057
    outer loop
      vertex 24.4 8.34792 2.92506
      vertex 44.8 8.34792 2.92506
      vertex 24.4 10.4753 2.23382
    endloop
  endfacet
  facet normal -2.20828e-16 0.104529 0.994522
    outer loop
      vertex 44.8 10.4753 2.23382
      vertex 44.8 12.7 2
      vertex 24.4 12.7 2
    endloop
  endfacet
  facet normal -2.20828e-16 0.104529 0.994522
    outer loop
      vertex 24.4 10.4753 2.23382
      vertex 44.8 10.4753 2.23382
      vertex 24.4 12.7 2
    endloop
  endfacet
  facet normal -2.20828e-16 -0.104529 0.994522
    outer loop
      vertex 24.4 12.7 2
      vertex 44.8 12.7 2
      vertex 44.8 14.9247 2.23382
    endloop
  endfacet
  facet normal -2.20828e-16 -0.104529 0.994522
    outer loop
      vertex 24.4 14.9247 2.23382
      vertex 24.4 12.7 2
      vertex 44.8 14.9247 2.23382
    endloop
  endfacet
  facet normal -2.11177e-16 -0.309017 0.951057
    outer loop
      vertex 24.4 14.9247 2.23382
      vertex 44.8 14.9247 2.23382
      vertex 44.8 17.0521 2.92506
    endloop
  endfacet
  facet normal -2.11177e-16 -0.309017 0.951057
    outer loop
      vertex 24.4 17.0521 2.92506
      vertex 24.4 14.9247 2.23382
      vertex 44.8 17.0521 2.92506
    endloop
  endfacet
  facet normal -1.92296e-16 -0.5 0.866025
    outer loop
      vertex 24.4 17.0521 2.92506
      vertex 44.8 17.0521 2.92506
      vertex 44.8 18.9893 4.04352
    endloop
  endfacet
  facet normal -1.92296e-16 -0.5 0.866025
    outer loop
      vertex 24.4 18.9893 4.04352
      vertex 24.4 17.0521 2.92506
      vertex 44.8 18.9893 4.04352
    endloop
  endfacet
  facet normal -1.65011e-16 -0.669131 0.743145
    outer loop
      vertex 24.4 18.9893 4.04352
      vertex 44.8 18.9893 4.04352
      vertex 44.8 20.6516 5.5403
    endloop
  endfacet
  facet normal -1.65011e-16 -0.669131 0.743145
    outer loop
      vertex 24.4 20.6516 5.5403
      vertex 24.4 18.9893 4.04352
      vertex 44.8 20.6516 5.5403
    endloop
  endfacet
  facet normal -1.30515e-16 -0.809017 0.587785
    outer loop
      vertex 24.4 20.6516 5.5403
      vertex 44.8 20.6516 5.5403
      vertex 44.8 21.9665 7.35
    endloop
  endfacet
  facet normal -1.30515e-16 -0.809017 0.587785
    outer loop
      vertex 24.4 21.9665 7.35
      vertex 24.4 20.6516 5.5403
      vertex 44.8 21.9665 7.35
    endloop
  endfacet
  facet normal -9.03137e-17 -0.913545 0.406737
    outer loop
      vertex 24.4 21.9665 7.35
      vertex 44.8 21.9665 7.35
      vertex 44.8 22.8763 9.39352
    endloop
  endfacet
  facet normal -9.03137e-17 -0.913545 0.406737
    outer loop
      vertex 24.4 22.8763 9.39352
      vertex 24.4 21.9665 7.35
      vertex 44.8 22.8763 9.39352
    endloop
  endfacet
  facet normal -4.61656e-17 -0.978148 0.207911
    outer loop
      vertex 24.4 22.8763 9.39352
      vertex 44.8 22.8763 9.39352
      vertex 44.8 23.3414 11.5815
    endloop
  endfacet
  facet normal -4.61656e-17 -0.978148 0.207911
    outer loop
      vertex 24.4 23.3414 11.5815
      vertex 24.4 22.8763 9.39352
      vertex 44.8 23.3414 11.5815
    endloop
  endfacet
  facet normal 0 -1 0
    outer loop
      vertex 24.4 23.3414 11.5815
      vertex 44.8 23.3414 11.5815
      vertex 44.8 23.3414 13.8185
    endloop
  endfacet
  facet normal 0 -1 0
    outer loop
      vertex 24.4 23.3414 13.8185
      vertex 24.4 23.3414 11.5815
      vertex 44.8 23.3414 13.8185
    endloop
  endfacet
  facet normal 4.61656e-17 -0.978148 -0.207911
    outer loop
      vertex 24.4 23.3414 13.8185
      vertex 44.8 23.3414 13.8185
      vertex 44.8 22.8763 16.0065
    endloop
  endfacet
  facet normal 4.61656e-17 -0.978148 -0.207911
    outer loop
      vertex 24.4 22.8763 16.0065
      vertex 24.4 23.3414 13.8185
      vertex 44.8 22.8763 16.0065
    endloop
  endfacet
  facet normal 9.03137e-17 -0.913545 -0.406737
    outer loop
      vertex 24.4 22.8763 16.0065
      vertex 44.8 22.8763 16.0065
      vertex 44.8 21.9665 18.05
    endloop
  endfacet
  facet normal 9.03137e-17 -0.913545 -0.406737
    outer loop
      vertex 24.4 21.9665 18.05
      vertex 24.4 22.8763 16.0065
      vertex 44.8 21.9665 18.05
    endloop
  endfacet
  facet normal 1.30515e-16 -0.809017 -0.587785
    outer loop
      vertex 24.4 21.9665 18.05
      vertex 44.8 21.9665 18.05
      vertex 44.8 20.6516 19.8597
    endloop
  endfacet
  facet normal 1.30515e-16 -0.809017 -0.587785
    outer loop
      vertex 24.4 20.6516 19.8597
      vertex 24.4 21.9665 18.05
      vertex 44.8 20.6516 19.8597
    endloop
  endfacet
  facet normal 1.65011e-16 -0.669131 -0.743145
    outer loop
      vertex 44.8 20.6516 19.8597
      vertex 44.8 18.9893 21.3565
      vertex 24.4 20.6516 19.8597
    endloop
  endfacet
  facet normal 1.65011e-16 -0.669131 -0.743145
    outer loop
      vertex 24.4 20.6516 19.8597
      vertex 44.8 18.9893 21.3565
      vertex 24.4 18.9893 21.3565
    endloop
  endfacet
  facet normal 1.92296e-16 -0.5 -0.866025
    outer loop
      vertex 44.8 18.9893 21.3565
      vertex 44.8 17.0521 22.4749
      vertex 24.4 18.9893 21.3565
    endloop
  endfacet
  facet normal 1.92296e-16 -0.5 -0.866025
    outer loop
      vertex 24.4 18.9893 21.3565
      vertex 44.8 17.0521 22.4749
      vertex 24.4 17.0521 22.4749
    endloop
  endfacet
  facet normal 2.11177e-16 -0.309017 -0.951057
    outer loop
      vertex 44.8 17.0521 22.4749
      vertex 44.8 14.9247 23.1662
      vertex 24.4 17.0521 22.4749
    endloop
  endfacet
  facet normal 2.11177e-16 -0.309017 -0.951057
    outer loop
      vertex 24.4 17.0521 22.4749
      vertex 44.8 14.9247 23.1662
      vertex 24.4 14.9247 23.1662
    endloop
  endfacet
  facet normal 2.20828e-16 -0.104529 -0.994522
    outer loop
      vertex 44.8 14.9247 23.1662
      vertex 44.8 12.7 23.4
      vertex 24.4 14.9247 23.1662
    endloop
  endfacet
  facet normal 2.20828e-16 -0.104529 -0.994522
    outer loop
      vertex 24.4 14.9247 23.1662
      vertex 44.8 12.7 23.4
      vertex 24.4 12.7 23.4
    endloop
  endfacet
  facet normal 2.20828e-16 0.104529 -0.994522
    outer loop
      vertex 44.8 10.4753 23.1662
      vertex 24.4 10.4753 23.1662
      vertex 44.8 12.7 23.4
    endloop
  endfacet
  facet normal 2.20828e-16 0.104529 -0.994522
    outer loop
      vertex 44.8 12.7 23.4
      vertex 24.4 10.4753 23.1662
      vertex 24.4 12.7 23.4
    endloop
  endfacet
  facet normal 2.11177e-16 0.309017 -0.951057
    outer loop
      vertex 44.8 8.34792 22.4749
      vertex 24.4 8.34792 22.4749
      vertex 44.8 10.4753 23.1662
    endloop
  endfacet
  facet normal 2.11177e-16 0.309017 -0.951057
    outer loop
      vertex 44.8 10.4753 23.1662
      vertex 24.4 8.34792 22.4749
      vertex 24.4 10.4753 23.1662
    endloop
  endfacet
  facet normal 1.92296e-16 0.5 -0.866025
    outer loop
      vertex 44.8 6.4107 21.3565
      vertex 24.4 6.4107 21.3565
      vertex 44.8 8.34792 22.4749
    endloop
  endfacet
  facet normal 1.92296e-16 0.5 -0.866025
    outer loop
      vertex 44.8 8.34792 22.4749
      vertex 24.4 6.4107 21.3565
      vertex 24.4 8.34792 22.4749
    endloop
  endfacet
  facet normal 1.65011e-16 0.669131 -0.743145
    outer loop
      vertex 44.8 4.74835 19.8597
      vertex 24.4 4.74835 19.8597
      vertex 44.8 6.4107 21.3565
    endloop
  endfacet
  facet normal 1.65011e-16 0.669131 -0.743145
    outer loop
      vertex 44.8 6.4107 21.3565
      vertex 24.4 4.74835 19.8597
      vertex 24.4 6.4107 21.3565
    endloop
  endfacet
  facet normal 1.30515e-16 0.809017 -0.587785
    outer loop
      vertex 44.8 3.43353 18.05
      vertex 24.4 3.43353 18.05
      vertex 44.8 4.74835 19.8597
    endloop
  endfacet
  facet normal 1.30515e-16 0.809017 -0.587785
    outer loop
      vertex 44.8 4.74835 19.8597
      vertex 24.4 3.43353 18.05
      vertex 24.4 4.74835 19.8597
    endloop
  endfacet
  facet normal 9.03137e-17 0.913545 -0.406737
    outer loop
      vertex 44.8 2.5237 16.0065
      vertex 24.4 2.5237 16.0065
      vertex 44.8 3.43353 18.05
    endloop
  endfacet
  facet normal 9.03137e-17 0.913545 -0.406737
    outer loop
      vertex 44.8 3.43353 18.05
      vertex 24.4 2.5237 16.0065
      vertex 24.4 3.43353 18.05
    endloop
  endfacet
  facet normal 4.61656e-17 0.978148 -0.207911
    outer loop
      vertex 44.8 2.05862 13.8185
      vertex 24.4 2.05862 13.8185
      vertex 44.8 2.5237 16.0065
    endloop
  endfacet
  facet normal 4.61656e-17 0.978148 -0.207911
    outer loop
      vertex 44.8 2.5237 16.0065
      vertex 24.4 2.05862 13.8185
      vertex 24.4 2.5237 16.0065
    endloop
  endfacet
  facet normal 0 1 2.22045e-16
    outer loop
      vertex 2.92506 24.4 17.0521
      vertex 4.04352 24.4 18.9893
      vertex 2.23382 24.4 14.9247
    endloop
  endfacet
  facet normal 0 1 2.22045e-16
    outer loop
      vertex 2.23382 24.4 14.9247
      vertex 4.04352 24.4 18.9893
      vertex 5.5403 24.4 20.6516
    endloop
  endfacet
  facet normal 0 1 2.22045e-16
    outer loop
      vertex 2.23382 24.4 14.9247
      vertex 5.5403 24.4 20.6516
      vertex 7.35 24.4 21.9665
    endloop
  endfacet
  facet normal 0 1 2.22045e-16
    outer loop
      vertex 2.23382 24.4 14.9247
      vertex 7.35 24.4 21.9665
      vertex 9.39352 24.4 22.8763
    endloop
  endfacet
  facet normal 0 1 2.22045e-16
    outer loop
      vertex 2.23382 24.4 14.9247
      vertex 9.39352 24.4 22.8763
      vertex 11.5815 24.4 23.3414
    endloop
  endfacet
  facet normal 0 1 2.22045e-16
    outer loop
      vertex 2.23382 24.4 14.9247
      vertex 11.5815 24.4 23.3414
      vertex 13.8185 24.4 23.3414
    endloop
  endfacet
  facet normal 0 1 2.22045e-16
    outer loop
      vertex 2.23382 24.4 14.9247
      vertex 13.8185 24.4 23.3414
      vertex 16.0065 24.4 22.8763
    endloop
  endfacet
  facet normal 0 1 2.22045e-16
    outer loop
      vertex 2.23382 24.4 14.9247
      vertex 16.0065 24.4 22.8763
      vertex 18.05 24.4 21.9665
    endloop
  endfacet
  facet normal 0 1 2.22045e-16
    outer loop
      vertex 2.23382 24.4 14.9247
      vertex 18.05 24.4 21.9665
      vertex 19.8597 24.4 20.6516
    endloop
  endfacet
  facet normal 0 1 2.22045e-16
    outer loop
      vertex 2.23382 24.4 14.9247
      vertex 19.8597 24.4 20.6516
      vertex 21.3565 24.4 18.9893
    endloop
  endfacet
  facet normal 0 1 2.22045e-16
    outer loop
      vertex 2.23382 24.4 14.9247
      vertex 21.3565 24.4 18.9893
      vertex 22.4749 24.4 17.0521
    endloop
  endfacet
  facet normal 0 1 2.22045e-16
    outer loop
      vertex 2.23382 24.4 14.9247
      vertex 22.4749 24.4 17.0521
      vertex 23.1662 24.4 14.9247
    endloop
  endfacet
  facet normal 0 1 2.22045e-16
    outer loop
      vertex 2.23382 24.4 14.9247
      vertex 23.1662 24.4 14.9247
      vertex 23.4 24.4 12.7
    endloop
  endfacet
  facet normal 0 1 2.22045e-16
    outer loop
      vertex 2.23382 24.4 14.9247
      vertex 23.4 24.4 12.7
      vertex 23.1662 24.4 10.4753
    endloop
  endfacet
  facet normal 0 1 2.22045e-16
    outer loop
      vertex 2.23382 24.4 14.9247
      vertex 23.1662 24.4 10.4753
      vertex 22.4749 24.4 8.34792
    endloop
  endfacet
  facet normal 0 1 2.22045e-16
    outer loop
      vertex 2.23382 24.4 14.9247
      vertex 22.4749 24.4 8.34792
      vertex 21.3565 24.4 6.4107
    endloop
  endfacet
  facet normal 0 1 2.22045e-16
    outer loop
      vertex 2.23382 24.4 14.9247
      vertex 21.3565 24.4 6.4107
      vertex 19.8597 24.4 4.74835
    endloop
  endfacet
  facet normal 0 1 2.22045e-16
    outer loop
      vertex 2.23382 24.4 14.9247
      vertex 19.8597 24.4 4.74835
      vertex 18.05 24.4 3.43353
    endloop
  endfacet
  facet normal 0 1 2.22045e-16
    outer loop
      vertex 2.23382 24.4 14.9247
      vertex 18.05 24.4 3.43353
      vertex 16.0065 24.4 2.5237
    endloop
  endfacet
  facet normal 0 1 2.22045e-16
    outer loop
      vertex 2.23382 24.4 14.9247
      vertex 16.0065 24.4 2.5237
      vertex 13.8185 24.4 2.05862
    endloop
  endfacet
  facet normal 0 1 2.22045e-16
    outer loop
      vertex 2.23382 24.4 14.9247
      vertex 13.8185 24.4 2.05862
      vertex 11.5815 24.4 2.05862
    endloop
  endfacet
  facet normal 0 1 2.22045e-16
    outer loop
      vertex 2.23382 24.4 14.9247
      vertex 11.5815 24.4 2.05862
      vertex 9.39352 24.4 2.5237
    endloop
  endfacet
  facet normal 0 1 2.22045e-16
    outer loop
      vertex 2.23382 24.4 14.9247
      vertex 9.39352 24.4 2.5237
      vertex 7.35 24.4 3.43353
    endloop
  endfacet
  facet normal 0 1 2.22045e-16
    outer loop
      vertex 2.23382 24.4 14.9247
      vertex 7.35 24.4 3.43353
      vertex 5.5403 24.4 4.74835
    endloop
  endfacet
  facet normal 0 1 2.22045e-16
    outer loop
      vertex 2.23382 24.4 14.9247
      vertex 5.5403 24.4 4.74835
      vertex 4.04352 24.4 6.4107
    endloop
  endfacet
  facet normal 0 1 2.22045e-16
    outer loop
      vertex 2.23382 24.4 14.9247
      vertex 4.04352 24.4 6.4107
      vertex 2.92506 24.4 8.34792
    endloop
  endfacet
  facet normal 0 1 2.22045e-16
    outer loop
      vertex 2.23382 24.4 14.9247
      vertex 2.92506 24.4 8.34792
      vertex 2.23382 24.4 10.4753
    endloop
  endfacet
  facet normal 0 1 2.22045e-16
    outer loop
      vertex 2.23382 24.4 14.9247
      vertex 2.23382 24.4 10.4753
      vertex 2 24.4 12.7
    endloop
  endfacet
  facet normal 0 0 1
    outer loop
      vertex 2.23382 10.4753 24.4
      vertex 2.92506 8.34792 24.4
      vertex 4.04352 6.4107 24.4
    endloop
  endfacet
  facet normal 0 0 1
    outer loop
      vertex 7.35 3.43353 24.4
      vertex 2.23382 10.4753 24.4
      vertex 5.5403 4.74835 24.4
    endloop
  endfacet
  facet normal 0 0 1
    outer loop
      vertex 5.5403 4.74835 24.4
      vertex 2.23382 10.4753 24.4
      vertex 4.04352 6.4107 24.4
    endloop
  endfacet
  facet normal 0 0 1
    outer loop
      vertex 9.39352 2.5237 24.4
      vertex 2.23382 10.4753 24.4
      vertex 7.35 3.43353 24.4
    endloop
  endfacet
  facet normal 0 0 1
    outer loop
      vertex 11.5815 2.05862 24.4
      vertex 2.23382 10.4753 24.4
      vertex 9.39352 2.5237 24.4
    endloop
  endfacet
  facet normal 0 0 1
    outer loop
      vertex 13.8185 2.05862 24.4
      vertex 2.23382 10.4753 24.4
      vertex 11.5815 2.05862 24.4
    endloop
  endfacet
  facet normal 0 0 1
    outer loop
      vertex 16.0065 2.5237 24.4
      vertex 2.23382 10.4753 24.4
      vertex 13.8185 2.05862 24.4
    endloop
  endfacet
  facet normal 0 0 1
    outer loop
      vertex 18.05 3.43353 24.4
      vertex 2.23382 10.4753 24.4
      vertex 16.0065 2.5237 24.4
    endloop
  endfacet
  facet normal 0 0 1
    outer loop
      vertex 19.8597 4.74835 24.4
      vertex 2.23382 10.4753 24.4
      vertex 18.05 3.43353 24.4
    endloop
  endfacet
  facet normal 0 0 1
    outer loop
      vertex 21.3565 6.4107 24.4
      vertex 2.23382 10.4753 24.4
      vertex 19.8597 4.74835 24.4
    endloop
  endfacet
  facet normal 0 0 1
    outer loop
      vertex 22.4749 8.34792 24.4
      vertex 2.23382 10.4753 24.4
      vertex 21.3565 6.4107 24.4
    endloop
  endfacet
  facet normal 0 0 1
    outer loop
      vertex 23.1662 10.4753 24.4
      vertex 2.23382 10.4753 24.4
      vertex 22.4749 8.34792 24.4
    endloop
  endfacet
  facet normal 0 0 1
    outer loop
      vertex 23.4 12.7 24.4
      vertex 2.23382 10.4753 24.4
      vertex 23.1662 10.4753 24.4
    endloop
  endfacet
  facet normal 0 0 1
    outer loop
      vertex 23.1662 14.9247 24.4
      vertex 2.23382 10.4753 24.4
      vertex 23.4 12.7 24.4
    endloop
  endfacet
  facet normal 0 0 1
    outer loop
      vertex 22.4749 17.0521 24.4
      vertex 2.23382 10.4753 24.4
      vertex 23.1662 14.9247 24.4
    endloop
  endfacet
  facet normal 0 0 1
    outer loop
      vertex 21.3565 18.9893 24.4
      vertex 2.23382 10.4753 24.4
      vertex 22.4749 17.0521 24.4
    endloop
  endfacet
  facet normal 0 0 1
    outer loop
      vertex 19.8597 20.6516 24.4
      vertex 2.23382 10.4753 24.4
      vertex 21.3565 18.9893 24.4
    endloop
  endfacet
  facet normal 0 0 1
    outer loop
      vertex 18.05 21.9665 24.4
      vertex 2.23382 10.4753 24.4
      vertex 19.8597 20.6516 24.4
    endloop
  endfacet
  facet normal 0 0 1
    outer loop
      vertex 16.0065 22.8763 24.4
      vertex 2.23382 10.4753 24.4
      vertex 18.05 21.9665 24.4
    endloop
  endfacet
  facet normal 0 0 1
    outer loop
      vertex 13.8185 23.3414 24.4
      vertex 2.23382 10.4753 24.4
      vertex 16.0065 22.8763 24.4
    endloop
  endfacet
  facet normal 0 0 1
    outer loop
      vertex 11.5815 23.3414 24.4
      vertex 2.23382 10.4753 24.4
      vertex 13.8185 23.3414 24.4
    endloop
  endfacet
  facet normal 0 0 1
    outer loop
      vertex 9.39352 22.8763 24.4
      vertex 2.23382 10.4753 24.4
      vertex 11.5815 23.3414 24.4
    endloop
  endfacet
  facet normal 0 0 1
    outer loop
      vertex 7.35 21.9665 24.4
      vertex 2.23382 10.4753 24.4
      vertex 9.39352 22.8763 24.4
    endloop
  endfacet
  facet normal 0 0 1
    outer loop
      vertex 5.5403 20.6516 24.4
      vertex 2.23382 10.4753 24.4
      vertex 7.35 21.9665 24.4
    endloop
  endfacet
  facet normal 0 0 1
    outer loop
      vertex 4.04352 18.9893 24.4
      vertex 2.23382 10.4753 24.4
      vertex 5.5403 20.6516 24.4
    endloop
  endfacet
  facet normal 0 0 1
    outer loop
      vertex 2.92506 17.0521 24.4
      vertex 2.23382 10.4753 24.4
      vertex 4.04352 18.9893 24.4
    endloop
  endfacet
  facet normal 0 0 1
    outer loop
      vertex 2.23382 14.9247 24.4
      vertex 2.23382 10.4753 24.4
      vertex 2.92506 17.0521 24.4
    endloop
  endfacet
  facet normal 0 0 1
    outer loop
      vertex 2 12.7 24.4
      vertex 2.23382 10.4753 24.4
      vertex 2.23382 14.9247 24.4
    endloop
  endfacet
  facet normal 1 0 2.22045e-16
    outer loop
      vertex 24.4 10.4753 23.1662
      vertex 24.4 8.34792 22.4749
      vertex 24.4 6.4107 21.3565
    endloop
  endfacet
  facet normal 1 0 2.22045e-16
    outer loop
      vertex 24.4 3.43353 18.05
      vertex 24.4 10.4753 23.1662
      vertex 24.4 4.74835 19.8597
    endloop
  endfacet
  facet normal 1 0 2.22045e-16
    outer loop
      vertex 24.4 4.74835 19.8597
      vertex 24.4 10.4753 23.1662
      vertex 24.4 6.4107 21.3565
    endloop
  endfacet
  facet normal 1 0 2.22045e-16
    outer loop
      vertex 24.4 2.5237 16.0065
      vertex 24.4 10.4753 23.1662
      vertex 24.4 3.43353 18.05
    endloop
  endfacet
  facet normal 1 0 2.22045e-16
    outer loop
      vertex 24.4 2.05862 13.8185
      vertex 24.4 10.4753 23.1662
      vertex 24.4 2.5237 16.0065
    endloop
  endfacet
  facet normal 1 0 2.22045e-16
    outer loop
      vertex 24.4 2.05862 11.5815
      vertex 24.4 10.4753 23.1662
      vertex 24.4 2.05862 13.8185
    endloop
  endfacet
  facet normal 1 0 2.22045e-16
    outer loop
      vertex 24.4 2.5237 9.39352
      vertex 24.4 10.4753 23.1662
      vertex 24.4 2.05862 11.5815
    endloop
  endfacet
  facet normal 1 0 2.22045e-16
    outer loop
      vertex 24.4 3.43353 7.35
      vertex 24.4 10.4753 23.1662
      vertex 24.4 2.5237 9.39352
    endloop
  endfacet
  facet normal 1 0 2.22045e-16
    outer loop
      vertex 24.4 4.74835 5.5403
      vertex 24.4 10.4753 23.1662
      vertex 24.4 3.43353 7.35
    endloop
  endfacet
  facet normal 1 0 2.22045e-16
    outer loop
      vertex 24.4 6.4107 4.04352
      vertex 24.4 10.4753 23.1662
      vertex 24.4 4.74835 5.5403
    endloop
  endfacet
  facet normal 1 0 2.22045e-16
    outer loop
      vertex 24.4 8.34792 2.92506
      vertex 24.4 10.4753 23.1662
      vertex 24.4 6.4107 4.04352
    endloop
  endfacet
  facet normal 1 0 2.22045e-16
    outer loop
      vertex 24.4 10.4753 2.23382
      vertex 24.4 10.4753 23.1662
      vertex 24.4 8.34792 2.92506
    endloop
  endfacet
  facet normal 1 0 2.22045e-16
    outer loop
      vertex 24.4 12.7 2
      vertex 24.4 10.4753 23.1662
      vertex 24.4 10.4753 2.23382
    endloop
  endfacet
  facet normal 1 0 2.22045e-16
    outer loop
      vertex 24.4 14.9247 2.23382
      vertex 24.4 10.4753 23.1662
      vertex 24.4 12.7 2
    endloop
  endfacet
  facet normal 1 0 2.22045e-16
    outer loop
      vertex 24.4 17.0521 2.92506
      vertex 24.4 10.4753 23.1662
      vertex 24.4 14.9247 2.23382
    endloop
  endfacet
  facet normal 1 0 2.22045e-16
    outer loop
      vertex 24.4 18.9893 4.04352
      vertex 24.4 10.4753 23.1662
      vertex 24.4 17.0521 2.92506
    endloop
  endfacet
  facet normal 1 0 2.22045e-16
    outer loop
      vertex 24.4 20.6516 5.5403
      vertex 24.4 10.4753 23.1662
      vertex 24.4 18.9893 4.04352
    endloop
  endfacet
  facet normal 1 0 2.22045e-16
    outer loop
      vertex 24.4 21.9665 7.35
      vertex 24.4 10.4753 23.1662
      vertex 24.4 20.6516 5.5403
    endloop
  endfacet
  facet normal 1 0 2.22045e-16
    outer loop
      vertex 24.4 22.8763 9.39352
      vertex 24.4 10.4753 23.1662
      vertex 24.4 21.9665 7.35
    endloop
  endfacet
  facet normal 1 0 2.22045e-16
    outer loop
      vertex 24.4 23.3414 11.5815
      vertex 24.4 10.4753 23.1662
      vertex 24.4 22.8763 9.39352
    endloop
  endfacet
  facet normal 1 0 2.22045e-16
    outer loop
      vertex 24.4 23.3414 13.8185
      vertex 24.4 10.4753 23.1662
      vertex 24.4 23.3414 11.5815
    endloop
  endfacet
  facet normal 1 0 2.22045e-16
    outer loop
      vertex 24.4 22.8763 16.0065
      vertex 24.4 10.4753 23.1662
      vertex 24.4 23.3414 13.8185
    endloop
  endfacet
  facet normal 1 0 2.22045e-16
    outer loop
      vertex 24.4 21.9665 18.05
      vertex 24.4 10.4753 23.1662
      vertex 24.4 22.8763 16.0065
    endloop
  endfacet
  facet normal 1 0 2.22045e-16
    outer loop
      vertex 24.4 20.6516 19.8597
      vertex 24.4 10.4753 23.1662
      vertex 24.4 21.9665 18.05
    endloop
  endfacet
  facet normal 1 0 2.22045e-16
    outer loop
      vertex 24.4 18.9893 21.3565
      vertex 24.4 10.4753 23.1662
      vertex 24.4 20.6516 19.8597
    endloop
  endfacet
  facet normal 1 0 2.22045e-16
    outer loop
      vertex 24.4 17.0521 22.4749
      vertex 24.4 10.4753 23.1662
      vertex 24.4 18.9893 21.3565
    endloop
  endfacet
  facet normal 1 0 2.22045e-16
    outer loop
      vertex 24.4 14.9247 23.1662
      vertex 24.4 10.4753 23.1662
      vertex 24.4 17.0521 22.4749
    endloop
  endfacet
  facet normal 1 0 2.22045e-16
    outer loop
      vertex 24.4 12.7 23.4
      vertex 24.4 10.4753 23.1662
      vertex 24.4 14.9247 23.1662
    endloop
  endfacet
endsolid OpenSCAD_Model
