solid OpenSCAD_Model
  facet normal 0 0 -1
    outer loop
      vertex -13 0 0
      vertex -12.7159 2.70285 0
      vertex -12.7159 -2.70285 0
    endloop
  endfacet
  facet normal 0 0 -1
    outer loop
      vertex -12.7159 -2.70285 0
      vertex -12.7159 2.70285 0
      vertex -11.8761 5.28758 0
    endloop
  endfacet
  facet normal 0 0 -1
    outer loop
      vertex -12.7159 -2.70285 0
      vertex -11.8761 5.28758 0
      vertex -10.5172 7.64121 0
    endloop
  endfacet
  facet normal 0 0 -1
    outer loop
      vertex -12.7159 -2.70285 0
      vertex -10.5172 7.64121 0
      vertex -8.6987 9.66088 0
    endloop
  endfacet
  facet normal 0 0 -1
    outer loop
      vertex -12.7159 -2.70285 0
      vertex -8.6987 9.66088 0
      vertex -6.5 11.2583 0
    endloop
  endfacet
  facet normal 0 0 -1
    outer loop
      vertex -12.7159 -2.70285 0
      vertex -6.5 11.2583 0
      vertex -4.01722 12.3637 0
    endloop
  endfacet
  facet normal 0 0 -1
    outer loop
      vertex -12.7159 -2.70285 0
      vertex -4.01722 12.3637 0
      vertex -1.35887 12.9288 0
    endloop
  endfacet
  facet normal 0 0 -1
    outer loop
      vertex -12.7159 -2.70285 0
      vertex -1.35887 12.9288 0
      vertex 1.35887 12.9288 0
    endloop
  endfacet
  facet normal 0 0 -1
    outer loop
      vertex -12.7159 -2.70285 0
      vertex 1.35887 12.9288 0
      vertex 4.01722 12.3637 0
    endloop
  endfacet
  facet normal 0 0 -1
    outer loop
      vertex -12.7159 -2.70285 0
      vertex 4.01722 12.3637 0
      vertex 6.5 11.2583 0
    endloop
  endfacet
  facet normal 0 0 -1
    outer loop
      vertex -12.7159 -2.70285 0
      vertex 6.5 11.2583 0
      vertex 8.6987 9.66088 0
    endloop
  endfacet
  facet normal 0 0 -1
    outer loop
      vertex -12.7159 -2.70285 0
      vertex 8.6987 9.66088 0
      vertex 10.5172 7.64121 0
    endloop
  endfacet
  facet normal 0 0 -1
    outer loop
      vertex -12.7159 -2.70285 0
      vertex 10.5172 7.64121 0
      vertex 11.8761 5.28758 0
    endloop
  endfacet
  facet normal 0 0 -1
    outer loop
      vertex -12.7159 -2.70285 0
      vertex 11.8761 5.28758 0
      vertex 12.7159 2.70285 0
    endloop
  endfacet
  facet normal 0 0 -1
    outer loop
      vertex -12.7159 -2.70285 0
      vertex 12.7159 2.70285 0
      vertex 13 0 0
    endloop
  endfacet
  facet normal 0 0 -1
    outer loop
      vertex -12.7159 -2.70285 0
      vertex 13 0 0
      vertex 12.7159 -2.70285 0
    endloop
  endfacet
  facet normal 0 0 -1
    outer loop
      vertex -12.7159 -2.70285 0
      vertex 12.7159 -2.70285 0
      vertex 11.8761 -5.28758 0
    endloop
  endfacet
  facet normal 0 0 -1
    outer loop
      vertex -12.7159 -2.70285 0
      vertex 11.8761 -5.28758 0
      vertex 10.5172 -7.64121 0
    endloop
  endfacet
  facet normal 0 0 -1
    outer loop
      vertex -12.7159 -2.70285 0
      vertex 10.5172 -7.64121 0
      vertex 8.6987 -9.66088 0
    endloop
  endfacet
  facet normal 0 0 -1
    outer loop
      vertex -12.7159 -2.70285 0
      vertex 8.6987 -9.66088 0
      vertex 6.5 -11.2583 0
    endloop
  endfacet
  facet normal 0 0 -1
    outer loop
      vertex -12.7159 -2.70285 0
      vertex 6.5 -11.2583 0
      vertex 4.01722 -12.3637 0
    endloop
  endfacet
  facet normal 0 0 -1
    outer loop
      vertex -12.7159 -2.70285 0
      vertex 4.01722 -12.3637 0
      vertex 1.35887 -12.9288 0
    endloop
  endfacet
  facet normal 0 0 -1
    outer loop
      vertex -12.7159 -2.70285 0
      vertex 1.35887 -12.9288 0
      vertex -1.35887 -12.9288 0
    endloop
  endfacet
  facet normal 0 0 -1
    outer loop
      vertex -12.7159 -2.70285 0
      vertex -1.35887 -12.9288 0
      vertex -4.01722 -12.3637 0
    endloop
  endfacet
  facet normal 0 0 -1
    outer loop
      vertex -12.7159 -2.70285 0
      vertex -4.01722 -12.3637 0
      vertex -6.5 -11.2583 0
    endloop
  endfacet
  facet normal 0 0 -1
    outer loop
      vertex -12.7159 -2.70285 0
      vertex -6.5 -11.2583 0
      vertex -8.6987 -9.66088 0
    endloop
  endfacet
  facet normal 0 0 -1
    outer loop
      vertex -12.7159 -2.70285 0
      vertex -8.6987 -9.66088 0
      vertex -10.5172 -7.64121 0
    endloop
  endfacet
  facet normal 0 0 -1
    outer loop
      vertex -12.7159 -2.70285 0
      vertex -10.5172 -7.64121 0
      vertex -11.8761 -5.28758 0
    endloop
  endfacet
  facet normal -0.994522 0.104528 0
    outer loop
      vertex -13 0 0
      vertex -13 0 7
      vertex -12.7159 2.70285 0
    endloop
  endfacet
  facet normal -0.994522 0.104528 0
    outer loop
      vertex -12.7159 2.70285 0
      vertex -13 0 7
      vertex -12.7159 2.70285 7
    endloop
  endfacet
  facet normal -0.994522 -0.104528 0
    outer loop
      vertex -13 0 0
      vertex -12.7159 -2.70285 0
      vertex -13 0 7
    endloop
  endfacet
  facet normal -0.994522 -0.104528 0
    outer loop
      vertex -13 0 7
      vertex -12.7159 -2.70285 0
      vertex -12.7159 -2.70285 7
    endloop
  endfacet
  facet normal -0.951056 -0.309017 0
    outer loop
      vertex -12.7159 -2.70285 0
      vertex -11.8761 -5.28758 0
      vertex -12.7159 -2.70285 7
    endloop
  endfacet
  facet normal -0.951056 -0.309017 0
    outer loop
      vertex -12.7159 -2.70285 7
      vertex -11.8761 -5.28758 0
      vertex -11.8761 -5.28758 7
    endloop
  endfacet
  facet normal -0.866025 -0.5 0
    outer loop
      vertex -11.8761 -5.28758 0
      vertex -10.5172 -7.64121 0
      vertex -11.8761 -5.28758 7
    endloop
  endfacet
  facet normal -0.866025 -0.5 0
    outer loop
      vertex -11.8761 -5.28758 7
      vertex -10.5172 -7.64121 0
      vertex -10.5172 -7.64121 7
    endloop
  endfacet
  facet normal -0.743145 -0.66913 0
    outer loop
      vertex -10.5172 -7.64121 0
      vertex -8.6987 -9.66088 0
      vertex -10.5172 -7.64121 7
    endloop
  endfacet
  facet normal -0.743145 -0.66913 0
    outer loop
      vertex -10.5172 -7.64121 7
      vertex -8.6987 -9.66088 0
      vertex -8.6987 -9.66088 7
    endloop
  endfacet
  facet normal -0.587785 -0.809017 0
    outer loop
      vertex -8.6987 -9.66088 7
      vertex -8.6987 -9.66088 0
      vertex -6.5 -11.2583 0
    endloop
  endfacet
  facet normal -0.587785 -0.809017 0
    outer loop
      vertex -6.5 -11.2583 7
      vertex -8.6987 -9.66088 7
      vertex -6.5 -11.2583 0
    endloop
  endfacet
  facet normal -0.406737 -0.913545 0
    outer loop
      vertex -6.5 -11.2583 7
      vertex -6.5 -11.2583 0
      vertex -4.01722 -12.3637 0
    endloop
  endfacet
  facet normal -0.406737 -0.913545 0
    outer loop
      vertex -4.01722 -12.3637 7
      vertex -6.5 -11.2583 7
      vertex -4.01722 -12.3637 0
    endloop
  endfacet
  facet normal -0.207912 -0.978148 0
    outer loop
      vertex -4.01722 -12.3637 7
      vertex -4.01722 -12.3637 0
      vertex -1.35887 -12.9288 0
    endloop
  endfacet
  facet normal -0.207912 -0.978148 0
    outer loop
      vertex -1.35887 -12.9288 7
      vertex -4.01722 -12.3637 7
      vertex -1.35887 -12.9288 0
    endloop
  endfacet
  facet normal 0 -1 0
    outer loop
      vertex -1.35887 -12.9288 7
      vertex -1.35887 -12.9288 0
      vertex 1.35887 -12.9288 0
    endloop
  endfacet
  facet normal 0 -1 0
    outer loop
      vertex 1.35887 -12.9288 7
      vertex -1.35887 -12.9288 7
      vertex 1.35887 -12.9288 0
    endloop
  endfacet
  facet normal 0.207912 -0.978148 0
    outer loop
      vertex 1.35887 -12.9288 7
      vertex 1.35887 -12.9288 0
      vertex 4.01722 -12.3637 0
    endloop
  endfacet
  facet normal 0.207912 -0.978148 0
    outer loop
      vertex 4.01722 -12.3637 7
      vertex 1.35887 -12.9288 7
      vertex 4.01722 -12.3637 0
    endloop
  endfacet
  facet normal 0.406737 -0.913545 0
    outer loop
      vertex 4.01722 -12.3637 7
      vertex 4.01722 -12.3637 0
      vertex 6.5 -11.2583 0
    endloop
  endfacet
  facet normal 0.406737 -0.913545 0
    outer loop
      vertex 6.5 -11.2583 7
      vertex 4.01722 -12.3637 7
      vertex 6.5 -11.2583 0
    endloop
  endfacet
  facet normal 0.587785 -0.809017 0
    outer loop
      vertex 6.5 -11.2583 7
      vertex 6.5 -11.2583 0
      vertex 8.6987 -9.66088 0
    endloop
  endfacet
  facet normal 0.587785 -0.809017 0
    outer loop
      vertex 8.6987 -9.66088 7
      vertex 6.5 -11.2583 7
      vertex 8.6987 -9.66088 0
    endloop
  endfacet
  facet normal 0.743145 -0.66913 0
    outer loop
      vertex 8.6987 -9.66088 7
      vertex 8.6987 -9.66088 0
      vertex 10.5172 -7.64121 0
    endloop
  endfacet
  facet normal 0.743145 -0.66913 0
    outer loop
      vertex 10.5172 -7.64121 7
      vertex 8.6987 -9.66088 7
      vertex 10.5172 -7.64121 0
    endloop
  endfacet
  facet normal 0.866025 -0.5 0
    outer loop
      vertex 10.5172 -7.64121 7
      vertex 10.5172 -7.64121 0
      vertex 11.8761 -5.28758 0
    endloop
  endfacet
  facet normal 0.866025 -0.5 0
    outer loop
      vertex 11.8761 -5.28758 7
      vertex 10.5172 -7.64121 7
      vertex 11.8761 -5.28758 0
    endloop
  endfacet
  facet normal 0.951056 -0.309017 0
    outer loop
      vertex 11.8761 -5.28758 7
      vertex 11.8761 -5.28758 0
      vertex 12.7159 -2.70285 0
    endloop
  endfacet
  facet normal 0.951056 -0.309017 0
    outer loop
      vertex 12.7159 -2.70285 7
      vertex 11.8761 -5.28758 7
      vertex 12.7159 -2.70285 0
    endloop
  endfacet
  facet normal 0.994522 -0.104528 0
    outer loop
      vertex 12.7159 -2.70285 7
      vertex 12.7159 -2.70285 0
      vertex 13 0 0
    endloop
  endfacet
  facet normal 0.994522 -0.104528 0
    outer loop
      vertex 13 0 7
      vertex 12.7159 -2.70285 7
      vertex 13 0 0
    endloop
  endfacet
  facet normal 0.994522 0.104528 0
    outer loop
      vertex 13 0 0
      vertex 12.7159 2.70285 0
      vertex 12.7159 2.70285 7
    endloop
  endfacet
  facet normal 0.994522 0.104528 0
    outer loop
      vertex 13 0 7
      vertex 13 0 0
      vertex 12.7159 2.70285 7
    endloop
  endfacet
  facet normal 0.951056 0.309017 0
    outer loop
      vertex 12.7159 2.70285 0
      vertex 11.8761 5.28758 0
      vertex 11.8761 5.28758 7
    endloop
  endfacet
  facet normal 0.951056 0.309017 0
    outer loop
      vertex 12.7159 2.70285 7
      vertex 12.7159 2.70285 0
      vertex 11.8761 5.28758 7
    endloop
  endfacet
  facet normal 0.866025 0.5 0
    outer loop
      vertex 11.8761 5.28758 0
      vertex 10.5172 7.64121 0
      vertex 10.5172 7.64121 7
    endloop
  endfacet
  facet normal 0.866025 0.5 0
    outer loop
      vertex 11.8761 5.28758 7
      vertex 11.8761 5.28758 0
      vertex 10.5172 7.64121 7
    endloop
  endfacet
  facet normal 0.743145 0.66913 0
    outer loop
      vertex 10.5172 7.64121 0
      vertex 8.6987 9.66088 0
      vertex 8.6987 9.66088 7
    endloop
  endfacet
  facet normal 0.743145 0.66913 0
    outer loop
      vertex 10.5172 7.64121 7
      vertex 10.5172 7.64121 0
      vertex 8.6987 9.66088 7
    endloop
  endfacet
  facet normal 0.587785 0.809017 0
    outer loop
      vertex 6.5 11.2583 0
      vertex 6.5 11.2583 7
      vertex 8.6987 9.66088 0
    endloop
  endfacet
  facet normal 0.587785 0.809017 0
    outer loop
      vertex 8.6987 9.66088 0
      vertex 6.5 11.2583 7
      vertex 8.6987 9.66088 7
    endloop
  endfacet
  facet normal 0.406737 0.913545 0
    outer loop
      vertex 4.01722 12.3637 0
      vertex 4.01722 12.3637 7
      vertex 6.5 11.2583 0
    endloop
  endfacet
  facet normal 0.406737 0.913545 0
    outer loop
      vertex 6.5 11.2583 0
      vertex 4.01722 12.3637 7
      vertex 6.5 11.2583 7
    endloop
  endfacet
  facet normal 0.207912 0.978148 0
    outer loop
      vertex 1.35887 12.9288 0
      vertex 1.35887 12.9288 7
      vertex 4.01722 12.3637 0
    endloop
  endfacet
  facet normal 0.207912 0.978148 0
    outer loop
      vertex 4.01722 12.3637 0
      vertex 1.35887 12.9288 7
      vertex 4.01722 12.3637 7
    endloop
  endfacet
  facet normal 0 1 0
    outer loop
      vertex -1.35887 12.9288 0
      vertex -1.35887 12.9288 7
      vertex 1.35887 12.9288 0
    endloop
  endfacet
  facet normal 0 1 0
    outer loop
      vertex 1.35887 12.9288 0
      vertex -1.35887 12.9288 7
      vertex 1.35887 12.9288 7
    endloop
  endfacet
  facet normal -0.207912 0.978148 0
    outer loop
      vertex -4.01722 12.3637 0
      vertex -4.01722 12.3637 7
      vertex -1.35887 12.9288 0
    endloop
  endfacet
  facet normal -0.207912 0.978148 0
    outer loop
      vertex -1.35887 12.9288 0
      vertex -4.01722 12.3637 7
      vertex -1.35887 12.9288 7
    endloop
  endfacet
  facet normal -0.406737 0.913545 0
    outer loop
      vertex -6.5 11.2583 0
      vertex -6.5 11.2583 7
      vertex -4.01722 12.3637 0
    endloop
  endfacet
  facet normal -0.406737 0.913545 0
    outer loop
      vertex -4.01722 12.3637 0
      vertex -6.5 11.2583 7
      vertex -4.01722 12.3637 7
    endloop
  endfacet
  facet normal -0.587785 0.809017 0
    outer loop
      vertex -8.6987 9.66088 0
      vertex -8.6987 9.66088 7
      vertex -6.5 11.2583 0
    endloop
  endfacet
  facet normal -0.587785 0.809017 0
    outer loop
      vertex -6.5 11.2583 0
      vertex -8.6987 9.66088 7
      vertex -6.5 11.2583 7
    endloop
  endfacet
  facet normal -0.743145 0.66913 0
    outer loop
      vertex -10.5172 7.64121 0
      vertex -10.5172 7.64121 7
      vertex -8.6987 9.66088 0
    endloop
  endfacet
  facet normal -0.743145 0.66913 0
    outer loop
      vertex -8.6987 9.66088 0
      vertex -10.5172 7.64121 7
      vertex -8.6987 9.66088 7
    endloop
  endfacet
  facet normal -0.866025 0.5 0
    outer loop
      vertex -11.8761 5.28758 0
      vertex -11.8761 5.28758 7
      vertex -10.5172 7.64121 0
    endloop
  endfacet
  facet normal -0.866025 0.5 0
    outer loop
      vertex -10.5172 7.64121 0
      vertex -11.8761 5.28758 7
      vertex -10.5172 7.64121 7
    endloop
  endfacet
  facet normal -0.951056 0.309017 0
    outer loop
      vertex -12.7159 2.70285 0
      vertex -12.7159 2.70285 7
      vertex -11.8761 5.28758 0
    endloop
  endfacet
  facet normal -0.951056 0.309017 0
    outer loop
      vertex -11.8761 5.28758 0
      vertex -12.7159 2.70285 7
      vertex -11.8761 5.28758 7
    endloop
  endfacet
  facet normal 0 0 1
    outer loop
      vertex -12.7159 2.70285 7
      vertex -13 0 7
      vertex -12.7159 -2.70285 7
    endloop
  endfacet
  facet normal 0 0 1
    outer loop
      vertex -10.5172 -7.64121 7
      vertex -12.7159 2.70285 7
      vertex -11.8761 -5.28758 7
    endloop
  endfacet
  facet normal 0 0 1
    outer loop
      vertex -11.8761 -5.28758 7
      vertex -12.7159 2.70285 7
      vertex -12.7159 -2.70285 7
    endloop
  endfacet
  facet normal 0 0 1
    outer loop
      vertex -8.6987 -9.66088 7
      vertex -12.7159 2.70285 7
      vertex -10.5172 -7.64121 7
    endloop
  endfacet
  facet normal 0 0 1
    outer loop
      vertex -10.7596 -2.28703 7
      vertex -12.7159 2.70285 7
      vertex -8.6987 -9.66088 7
    endloop
  endfacet
  facet normal 0 0 1
    outer loop
      vertex 8.89919 -6.46564 7
      vertex 7.36044 -8.17459 7
      vertex 10.5172 -7.64121 7
    endloop
  endfacet
  facet normal 0 0 1
    outer loop
      vertex -10.7596 2.28703 7
      vertex -10.049 4.4741 7
      vertex -12.7159 2.70285 7
    endloop
  endfacet
  facet normal 0 0 1
    outer loop
      vertex -1.14981 -10.9397 7
      vertex -3.39919 -10.4616 7
      vertex -1.35887 -12.9288 7
    endloop
  endfacet
  facet normal 0 0 1
    outer loop
      vertex 10.049 4.4741 7
      vertex 10.7596 2.28703 7
      vertex 12.7159 2.70285 7
    endloop
  endfacet
  facet normal 0 0 1
    outer loop
      vertex 8.89919 6.46564 7
      vertex 10.049 4.4741 7
      vertex 11.8761 5.28758 7
    endloop
  endfacet
  facet normal 0 0 1
    outer loop
      vertex 7.36044 8.17459 7
      vertex 8.89919 6.46564 7
      vertex 10.5172 7.64121 7
    endloop
  endfacet
  facet normal 0 0 1
    outer loop
      vertex 1.14981 10.9397 7
      vertex 3.39919 10.4616 7
      vertex 4.01722 12.3637 7
    endloop
  endfacet
  facet normal 0 0 1
    outer loop
      vertex -3.39919 10.4616 7
      vertex -1.14981 10.9397 7
      vertex 1.35887 12.9288 7
    endloop
  endfacet
  facet normal 0 0 1
    outer loop
      vertex -6.5 11.2583 7
      vertex -12.7159 2.70285 7
      vertex -4.01722 12.3637 7
    endloop
  endfacet
  facet normal 0 0 1
    outer loop
      vertex -8.6987 9.66088 7
      vertex -12.7159 2.70285 7
      vertex -6.5 11.2583 7
    endloop
  endfacet
  facet normal 0 0 1
    outer loop
      vertex -10.5172 7.64121 7
      vertex -12.7159 2.70285 7
      vertex -8.6987 9.66088 7
    endloop
  endfacet
  facet normal 0 0 1
    outer loop
      vertex -11.8761 5.28758 7
      vertex -12.7159 2.70285 7
      vertex -10.5172 7.64121 7
    endloop
  endfacet
  facet normal 0 0 1
    outer loop
      vertex -10.049 -4.4741 7
      vertex -10.7596 -2.28703 7
      vertex -8.6987 -9.66088 7
    endloop
  endfacet
  facet normal 0 0 1
    outer loop
      vertex 10.049 -4.4741 7
      vertex 8.89919 -6.46564 7
      vertex 11.8761 -5.28758 7
    endloop
  endfacet
  facet normal 0 0 1
    outer loop
      vertex 3.39919 10.4616 7
      vertex 5.5 9.52628 7
      vertex 6.5 11.2583 7
    endloop
  endfacet
  facet normal 0 0 1
    outer loop
      vertex -4.01722 12.3637 7
      vertex -12.7159 2.70285 7
      vertex -8.89919 6.46564 7
    endloop
  endfacet
  facet normal 0 0 1
    outer loop
      vertex -4.01722 12.3637 7
      vertex -7.36044 8.17459 7
      vertex -1.35887 12.9288 7
    endloop
  endfacet
  facet normal 0 0 1
    outer loop
      vertex -4.01722 12.3637 7
      vertex -8.89919 6.46564 7
      vertex -7.36044 8.17459 7
    endloop
  endfacet
  facet normal 0 0 1
    outer loop
      vertex -7.36044 8.17459 7
      vertex -5.5 9.52628 7
      vertex -1.35887 12.9288 7
    endloop
  endfacet
  facet normal 0 0 1
    outer loop
      vertex -1.35887 12.9288 7
      vertex -3.39919 10.4616 7
      vertex 1.35887 12.9288 7
    endloop
  endfacet
  facet normal 0 0 1
    outer loop
      vertex -5.5 9.52628 7
      vertex -3.39919 10.4616 7
      vertex -1.35887 12.9288 7
    endloop
  endfacet
  facet normal 0 0 1
    outer loop
      vertex 1.35887 12.9288 7
      vertex -1.14981 10.9397 7
      vertex 4.01722 12.3637 7
    endloop
  endfacet
  facet normal 0 0 1
    outer loop
      vertex -1.14981 10.9397 7
      vertex 1.14981 10.9397 7
      vertex 4.01722 12.3637 7
    endloop
  endfacet
  facet normal 0 0 1
    outer loop
      vertex 4.01722 12.3637 7
      vertex 3.39919 10.4616 7
      vertex 6.5 11.2583 7
    endloop
  endfacet
  facet normal 0 0 1
    outer loop
      vertex 10.7596 2.28703 7
      vertex 11 0 7
      vertex 13 0 7
    endloop
  endfacet
  facet normal 0 0 1
    outer loop
      vertex 6.5 11.2583 7
      vertex 5.5 9.52628 7
      vertex 8.6987 9.66088 7
    endloop
  endfacet
  facet normal 0 0 1
    outer loop
      vertex -10.049 4.4741 7
      vertex -8.89919 6.46564 7
      vertex -12.7159 2.70285 7
    endloop
  endfacet
  facet normal 0 0 1
    outer loop
      vertex 8.6987 9.66088 7
      vertex 7.36044 8.17459 7
      vertex 10.5172 7.64121 7
    endloop
  endfacet
  facet normal 0 0 1
    outer loop
      vertex 10.5172 7.64121 7
      vertex 8.89919 6.46564 7
      vertex 11.8761 5.28758 7
    endloop
  endfacet
  facet normal 0 0 1
    outer loop
      vertex 11.8761 5.28758 7
      vertex 10.049 4.4741 7
      vertex 12.7159 2.70285 7
    endloop
  endfacet
  facet normal 0 0 1
    outer loop
      vertex 12.7159 2.70285 7
      vertex 10.7596 2.28703 7
      vertex 13 0 7
    endloop
  endfacet
  facet normal 0 0 1
    outer loop
      vertex 13 0 7
      vertex 11 0 7
      vertex 12.7159 -2.70285 7
    endloop
  endfacet
  facet normal 0 0 1
    outer loop
      vertex 12.7159 -2.70285 7
      vertex 10.7596 -2.28703 7
      vertex 11.8761 -5.28758 7
    endloop
  endfacet
  facet normal 0 0 1
    outer loop
      vertex 5.5 9.52628 7
      vertex 7.36044 8.17459 7
      vertex 8.6987 9.66088 7
    endloop
  endfacet
  facet normal 0 0 1
    outer loop
      vertex 10.7596 -2.28703 7
      vertex 10.049 -4.4741 7
      vertex 11.8761 -5.28758 7
    endloop
  endfacet
  facet normal 0 0 1
    outer loop
      vertex 11.8761 -5.28758 7
      vertex 8.89919 -6.46564 7
      vertex 10.5172 -7.64121 7
    endloop
  endfacet
  facet normal 0 0 1
    outer loop
      vertex 10.5172 -7.64121 7
      vertex 7.36044 -8.17459 7
      vertex 8.6987 -9.66088 7
    endloop
  endfacet
  facet normal 0 0 1
    outer loop
      vertex 8.6987 -9.66088 7
      vertex 5.5 -9.52628 7
      vertex 6.5 -11.2583 7
    endloop
  endfacet
  facet normal 0 0 1
    outer loop
      vertex 6.5 -11.2583 7
      vertex 3.39919 -10.4616 7
      vertex 4.01722 -12.3637 7
    endloop
  endfacet
  facet normal 0 0 1
    outer loop
      vertex 4.01722 -12.3637 7
      vertex 1.14981 -10.9397 7
      vertex 1.35887 -12.9288 7
    endloop
  endfacet
  facet normal 0 0 1
    outer loop
      vertex 11 0 7
      vertex 10.7596 -2.28703 7
      vertex 12.7159 -2.70285 7
    endloop
  endfacet
  facet normal 0 0 1
    outer loop
      vertex 1.35887 -12.9288 7
      vertex -1.14981 -10.9397 7
      vertex -1.35887 -12.9288 7
    endloop
  endfacet
  facet normal 0 0 1
    outer loop
      vertex -1.35887 -12.9288 7
      vertex -3.39919 -10.4616 7
      vertex -4.01722 -12.3637 7
    endloop
  endfacet
  facet normal 0 0 1
    outer loop
      vertex -3.39919 -10.4616 7
      vertex -5.5 -9.52628 7
      vertex -4.01722 -12.3637 7
    endloop
  endfacet
  facet normal 0 0 1
    outer loop
      vertex -4.01722 -12.3637 7
      vertex -7.36044 -8.17459 7
      vertex -6.5 -11.2583 7
    endloop
  endfacet
  facet normal 0 0 1
    outer loop
      vertex -6.5 -11.2583 7
      vertex -8.89919 -6.46564 7
      vertex -8.6987 -9.66088 7
    endloop
  endfacet
  facet normal 0 0 1
    outer loop
      vertex -8.89919 -6.46564 7
      vertex -10.049 -4.4741 7
      vertex -8.6987 -9.66088 7
    endloop
  endfacet
  facet normal 0 0 1
    outer loop
      vertex -10.7596 -2.28703 7
      vertex -11 0 7
      vertex -12.7159 2.70285 7
    endloop
  endfacet
  facet normal 0 0 1
    outer loop
      vertex 7.36044 -8.17459 7
      vertex 5.5 -9.52628 7
      vertex 8.6987 -9.66088 7
    endloop
  endfacet
  facet normal 0 0 1
    outer loop
      vertex 5.5 -9.52628 7
      vertex 3.39919 -10.4616 7
      vertex 6.5 -11.2583 7
    endloop
  endfacet
  facet normal 0 0 1
    outer loop
      vertex 3.39919 -10.4616 7
      vertex 1.14981 -10.9397 7
      vertex 4.01722 -12.3637 7
    endloop
  endfacet
  facet normal 0 0 1
    outer loop
      vertex 1.14981 -10.9397 7
      vertex -1.14981 -10.9397 7
      vertex 1.35887 -12.9288 7
    endloop
  endfacet
  facet normal 0 0 1
    outer loop
      vertex -7.36044 -8.17459 7
      vertex -8.89919 -6.46564 7
      vertex -6.5 -11.2583 7
    endloop
  endfacet
  facet normal 0 0 1
    outer loop
      vertex -5.5 -9.52628 7
      vertex -7.36044 -8.17459 7
      vertex -4.01722 -12.3637 7
    endloop
  endfacet
  facet normal 0 0 1
    outer loop
      vertex -11 0 7
      vertex -10.7596 2.28703 7
      vertex -12.7159 2.70285 7
    endloop
  endfacet
  facet normal 0.994522 0.104528 0
    outer loop
      vertex -11 0 7
      vertex -10.7596 -2.28703 7
      vertex -10.7596 -2.28703 2
    endloop
  endfacet
  facet normal 0.994522 0.104528 0
    outer loop
      vertex -11 0 2
      vertex -11 0 7
      vertex -10.7596 -2.28703 2
    endloop
  endfacet
  facet normal 0.951056 0.309017 0
    outer loop
      vertex -10.7596 -2.28703 7
      vertex -10.049 -4.4741 7
      vertex -10.049 -4.4741 2
    endloop
  endfacet
  facet normal 0.951056 0.309017 0
    outer loop
      vertex -10.7596 -2.28703 2
      vertex -10.7596 -2.28703 7
      vertex -10.049 -4.4741 2
    endloop
  endfacet
  facet normal 0.866025 0.5 0
    outer loop
      vertex -10.049 -4.4741 7
      vertex -8.89919 -6.46564 7
      vertex -8.89919 -6.46564 2
    endloop
  endfacet
  facet normal 0.866025 0.5 0
    outer loop
      vertex -10.049 -4.4741 2
      vertex -10.049 -4.4741 7
      vertex -8.89919 -6.46564 2
    endloop
  endfacet
  facet normal 0.743145 0.669131 0
    outer loop
      vertex -8.89919 -6.46564 7
      vertex -7.36044 -8.17459 7
      vertex -7.36044 -8.17459 2
    endloop
  endfacet
  facet normal 0.743145 0.669131 0
    outer loop
      vertex -8.89919 -6.46564 2
      vertex -8.89919 -6.46564 7
      vertex -7.36044 -8.17459 2
    endloop
  endfacet
  facet normal 0.587785 0.809017 0
    outer loop
      vertex -5.5 -9.52628 7
      vertex -5.5 -9.52628 2
      vertex -7.36044 -8.17459 7
    endloop
  endfacet
  facet normal 0.587785 0.809017 0
    outer loop
      vertex -7.36044 -8.17459 7
      vertex -5.5 -9.52628 2
      vertex -7.36044 -8.17459 2
    endloop
  endfacet
  facet normal 0.406737 0.913545 0
    outer loop
      vertex -3.39919 -10.4616 7
      vertex -3.39919 -10.4616 2
      vertex -5.5 -9.52628 7
    endloop
  endfacet
  facet normal 0.406737 0.913545 0
    outer loop
      vertex -5.5 -9.52628 7
      vertex -3.39919 -10.4616 2
      vertex -5.5 -9.52628 2
    endloop
  endfacet
  facet normal 0.207912 0.978148 0
    outer loop
      vertex -1.14981 -10.9397 7
      vertex -1.14981 -10.9397 2
      vertex -3.39919 -10.4616 7
    endloop
  endfacet
  facet normal 0.207912 0.978148 0
    outer loop
      vertex -3.39919 -10.4616 7
      vertex -1.14981 -10.9397 2
      vertex -3.39919 -10.4616 2
    endloop
  endfacet
  facet normal 0 1 0
    outer loop
      vertex 1.14981 -10.9397 7
      vertex 1.14981 -10.9397 2
      vertex -1.14981 -10.9397 7
    endloop
  endfacet
  facet normal 0 1 0
    outer loop
      vertex -1.14981 -10.9397 7
      vertex 1.14981 -10.9397 2
      vertex -1.14981 -10.9397 2
    endloop
  endfacet
  facet normal -0.207912 0.978148 0
    outer loop
      vertex 3.39919 -10.4616 7
      vertex 3.39919 -10.4616 2
      vertex 1.14981 -10.9397 7
    endloop
  endfacet
  facet normal -0.207912 0.978148 0
    outer loop
      vertex 1.14981 -10.9397 7
      vertex 3.39919 -10.4616 2
      vertex 1.14981 -10.9397 2
    endloop
  endfacet
  facet normal -0.406737 0.913545 0
    outer loop
      vertex 5.5 -9.52628 7
      vertex 5.5 -9.52628 2
      vertex 3.39919 -10.4616 7
    endloop
  endfacet
  facet normal -0.406737 0.913545 0
    outer loop
      vertex 3.39919 -10.4616 7
      vertex 5.5 -9.52628 2
      vertex 3.39919 -10.4616 2
    endloop
  endfacet
  facet normal -0.587785 0.809017 0
    outer loop
      vertex 7.36044 -8.17459 7
      vertex 7.36044 -8.17459 2
      vertex 5.5 -9.52628 7
    endloop
  endfacet
  facet normal -0.587785 0.809017 0
    outer loop
      vertex 5.5 -9.52628 7
      vertex 7.36044 -8.17459 2
      vertex 5.5 -9.52628 2
    endloop
  endfacet
  facet normal -0.743145 0.669131 0
    outer loop
      vertex 8.89919 -6.46564 7
      vertex 8.89919 -6.46564 2
      vertex 7.36044 -8.17459 7
    endloop
  endfacet
  facet normal -0.743145 0.669131 0
    outer loop
      vertex 7.36044 -8.17459 7
      vertex 8.89919 -6.46564 2
      vertex 7.36044 -8.17459 2
    endloop
  endfacet
  facet normal -0.866025 0.5 0
    outer loop
      vertex 10.049 -4.4741 7
      vertex 10.049 -4.4741 2
      vertex 8.89919 -6.46564 7
    endloop
  endfacet
  facet normal -0.866025 0.5 0
    outer loop
      vertex 8.89919 -6.46564 7
      vertex 10.049 -4.4741 2
      vertex 8.89919 -6.46564 2
    endloop
  endfacet
  facet normal -0.951056 0.309017 0
    outer loop
      vertex 10.7596 -2.28703 7
      vertex 10.7596 -2.28703 2
      vertex 10.049 -4.4741 7
    endloop
  endfacet
  facet normal -0.951056 0.309017 0
    outer loop
      vertex 10.049 -4.4741 7
      vertex 10.7596 -2.28703 2
      vertex 10.049 -4.4741 2
    endloop
  endfacet
  facet normal -0.994522 0.104528 0
    outer loop
      vertex 11 0 7
      vertex 11 0 2
      vertex 10.7596 -2.28703 7
    endloop
  endfacet
  facet normal -0.994522 0.104528 0
    outer loop
      vertex 10.7596 -2.28703 7
      vertex 11 0 2
      vertex 10.7596 -2.28703 2
    endloop
  endfacet
  facet normal -0.994522 -0.104528 0
    outer loop
      vertex 11 0 7
      vertex 10.7596 2.28703 7
      vertex 11 0 2
    endloop
  endfacet
  facet normal -0.994522 -0.104528 0
    outer loop
      vertex 11 0 2
      vertex 10.7596 2.28703 7
      vertex 10.7596 2.28703 2
    endloop
  endfacet
  facet normal -0.951056 -0.309017 0
    outer loop
      vertex 10.7596 2.28703 7
      vertex 10.049 4.4741 7
      vertex 10.7596 2.28703 2
    endloop
  endfacet
  facet normal -0.951056 -0.309017 0
    outer loop
      vertex 10.7596 2.28703 2
      vertex 10.049 4.4741 7
      vertex 10.049 4.4741 2
    endloop
  endfacet
  facet normal -0.866025 -0.5 0
    outer loop
      vertex 10.049 4.4741 7
      vertex 8.89919 6.46564 7
      vertex 10.049 4.4741 2
    endloop
  endfacet
  facet normal -0.866025 -0.5 0
    outer loop
      vertex 10.049 4.4741 2
      vertex 8.89919 6.46564 7
      vertex 8.89919 6.46564 2
    endloop
  endfacet
  facet normal -0.743145 -0.669131 0
    outer loop
      vertex 8.89919 6.46564 7
      vertex 7.36044 8.17459 7
      vertex 8.89919 6.46564 2
    endloop
  endfacet
  facet normal -0.743145 -0.669131 0
    outer loop
      vertex 8.89919 6.46564 2
      vertex 7.36044 8.17459 7
      vertex 7.36044 8.17459 2
    endloop
  endfacet
  facet normal -0.587785 -0.809017 0
    outer loop
      vertex 7.36044 8.17459 2
      vertex 7.36044 8.17459 7
      vertex 5.5 9.52628 7
    endloop
  endfacet
  facet normal -0.587785 -0.809017 0
    outer loop
      vertex 5.5 9.52628 2
      vertex 7.36044 8.17459 2
      vertex 5.5 9.52628 7
    endloop
  endfacet
  facet normal -0.406737 -0.913545 0
    outer loop
      vertex 5.5 9.52628 2
      vertex 5.5 9.52628 7
      vertex 3.39919 10.4616 7
    endloop
  endfacet
  facet normal -0.406737 -0.913545 0
    outer loop
      vertex 3.39919 10.4616 2
      vertex 5.5 9.52628 2
      vertex 3.39919 10.4616 7
    endloop
  endfacet
  facet normal -0.207912 -0.978148 0
    outer loop
      vertex 3.39919 10.4616 2
      vertex 3.39919 10.4616 7
      vertex 1.14981 10.9397 7
    endloop
  endfacet
  facet normal -0.207912 -0.978148 0
    outer loop
      vertex 1.14981 10.9397 2
      vertex 3.39919 10.4616 2
      vertex 1.14981 10.9397 7
    endloop
  endfacet
  facet normal 0 -1 0
    outer loop
      vertex 1.14981 10.9397 2
      vertex 1.14981 10.9397 7
      vertex -1.14981 10.9397 7
    endloop
  endfacet
  facet normal 0 -1 0
    outer loop
      vertex -1.14981 10.9397 2
      vertex 1.14981 10.9397 2
      vertex -1.14981 10.9397 7
    endloop
  endfacet
  facet normal 0.207912 -0.978148 0
    outer loop
      vertex -1.14981 10.9397 2
      vertex -1.14981 10.9397 7
      vertex -3.39919 10.4616 7
    endloop
  endfacet
  facet normal 0.207912 -0.978148 0
    outer loop
      vertex -3.39919 10.4616 2
      vertex -1.14981 10.9397 2
      vertex -3.39919 10.4616 7
    endloop
  endfacet
  facet normal 0.406737 -0.913545 0
    outer loop
      vertex -3.39919 10.4616 2
      vertex -3.39919 10.4616 7
      vertex -5.5 9.52628 7
    endloop
  endfacet
  facet normal 0.406737 -0.913545 0
    outer loop
      vertex -5.5 9.52628 2
      vertex -3.39919 10.4616 2
      vertex -5.5 9.52628 7
    endloop
  endfacet
  facet normal 0.587785 -0.809017 0
    outer loop
      vertex -5.5 9.52628 2
      vertex -5.5 9.52628 7
      vertex -7.36044 8.17459 7
    endloop
  endfacet
  facet normal 0.587785 -0.809017 0
    outer loop
      vertex -7.36044 8.17459 2
      vertex -5.5 9.52628 2
      vertex -7.36044 8.17459 7
    endloop
  endfacet
  facet normal 0.743145 -0.669131 0
    outer loop
      vertex -7.36044 8.17459 2
      vertex -7.36044 8.17459 7
      vertex -8.89919 6.46564 7
    endloop
  endfacet
  facet normal 0.743145 -0.669131 0
    outer loop
      vertex -8.89919 6.46564 2
      vertex -7.36044 8.17459 2
      vertex -8.89919 6.46564 7
    endloop
  endfacet
  facet normal 0.866025 -0.5 0
    outer loop
      vertex -8.89919 6.46564 2
      vertex -8.89919 6.46564 7
      vertex -10.049 4.4741 7
    endloop
  endfacet
  facet normal 0.866025 -0.5 0
    outer loop
      vertex -10.049 4.4741 2
      vertex -8.89919 6.46564 2
      vertex -10.049 4.4741 7
    endloop
  endfacet
  facet normal 0.951056 -0.309017 0
    outer loop
      vertex -10.049 4.4741 2
      vertex -10.049 4.4741 7
      vertex -10.7596 2.28703 7
    endloop
  endfacet
  facet normal 0.951056 -0.309017 0
    outer loop
      vertex -10.7596 2.28703 2
      vertex -10.049 4.4741 2
      vertex -10.7596 2.28703 7
    endloop
  endfacet
  facet normal 0.994522 -0.104528 0
    outer loop
      vertex -10.7596 2.28703 2
      vertex -10.7596 2.28703 7
      vertex -11 0 7
    endloop
  endfacet
  facet normal 0.994522 -0.104528 0
    outer loop
      vertex -11 0 2
      vertex -10.7596 2.28703 2
      vertex -11 0 7
    endloop
  endfacet
  facet normal 0 0 1
    outer loop
      vertex -10.7596 -2.28703 2
      vertex -10.049 -4.4741 2
      vertex -8.89919 -6.46564 2
    endloop
  endfacet
  facet normal 0 0 1
    outer loop
      vertex -5.5 -9.52628 2
      vertex -10.7596 -2.28703 2
      vertex -7.36044 -8.17459 2
    endloop
  endfacet
  facet normal 0 0 1
    outer loop
      vertex -7.36044 -8.17459 2
      vertex -10.7596 -2.28703 2
      vertex -8.89919 -6.46564 2
    endloop
  endfacet
  facet normal 0 0 1
    outer loop
      vertex -3.39919 -10.4616 2
      vertex -10.7596 -2.28703 2
      vertex -5.5 -9.52628 2
    endloop
  endfacet
  facet normal 0 0 1
    outer loop
      vertex -1.14981 -10.9397 2
      vertex -10.7596 -2.28703 2
      vertex -3.39919 -10.4616 2
    endloop
  endfacet
  facet normal 0 0 1
    outer loop
      vertex 1.14981 -10.9397 2
      vertex -10.7596 -2.28703 2
      vertex -1.14981 -10.9397 2
    endloop
  endfacet
  facet normal 0 0 1
    outer loop
      vertex 3.39919 -10.4616 2
      vertex -10.7596 -2.28703 2
      vertex 1.14981 -10.9397 2
    endloop
  endfacet
  facet normal 0 0 1
    outer loop
      vertex 5.5 -9.52628 2
      vertex -10.7596 -2.28703 2
      vertex 3.39919 -10.4616 2
    endloop
  endfacet
  facet normal 0 0 1
    outer loop
      vertex 7.36044 -8.17459 2
      vertex -10.7596 -2.28703 2
      vertex 5.5 -9.52628 2
    endloop
  endfacet
  facet normal 0 0 1
    outer loop
      vertex 8.89919 -6.46564 2
      vertex -10.7596 -2.28703 2
      vertex 7.36044 -8.17459 2
    endloop
  endfacet
  facet normal 0 0 1
    outer loop
      vertex 10.049 -4.4741 2
      vertex -10.7596 -2.28703 2
      vertex 8.89919 -6.46564 2
    endloop
  endfacet
  facet normal 0 0 1
    outer loop
      vertex 10.7596 -2.28703 2
      vertex -10.7596 -2.28703 2
      vertex 10.049 -4.4741 2
    endloop
  endfacet
  facet normal 0 0 1
    outer loop
      vertex 11 0 2
      vertex -10.7596 -2.28703 2
      vertex 10.7596 -2.28703 2
    endloop
  endfacet
  facet normal 0 0 1
    outer loop
      vertex 10.7596 2.28703 2
      vertex -10.7596 -2.28703 2
      vertex 11 0 2
    endloop
  endfacet
  facet normal 0 0 1
    outer loop
      vertex 10.049 4.4741 2
      vertex -10.7596 -2.28703 2
      vertex 10.7596 2.28703 2
    endloop
  endfacet
  facet normal 0 0 1
    outer loop
      vertex 8.89919 6.46564 2
      vertex -10.7596 -2.28703 2
      vertex 10.049 4.4741 2
    endloop
  endfacet
  facet normal 0 0 1
    outer loop
      vertex 7.36044 8.17459 2
      vertex -10.7596 -2.28703 2
      vertex 8.89919 6.46564 2
    endloop
  endfacet
  facet normal 0 0 1
    outer loop
      vertex 5.5 9.52628 2
      vertex -10.7596 -2.28703 2
      vertex 7.36044 8.17459 2
    endloop
  endfacet
  facet normal 0 0 1
    outer loop
      vertex 3.39919 10.4616 2
      vertex -10.7596 -2.28703 2
      vertex 5.5 9.52628 2
    endloop
  endfacet
  facet normal 0 0 1
    outer loop
      vertex 1.14981 10.9397 2
      vertex -10.7596 -2.28703 2
      vertex 3.39919 10.4616 2
    endloop
  endfacet
  facet normal 0 0 1
    outer loop
      vertex -1.14981 10.9397 2
      vertex -10.7596 -2.28703 2
      vertex 1.14981 10.9397 2
    endloop
  endfacet
  facet normal 0 0 1
    outer loop
      vertex -3.39919 10.4616 2
      vertex -10.7596 -2.28703 2
      vertex -1.14981 10.9397 2
    endloop
  endfacet
  facet normal 0 0 1
    outer loop
      vertex -5.5 9.52628 2
      vertex -10.7596 -2.28703 2
      vertex -3.39919 10.4616 2
    endloop
  endfacet
  facet normal 0 0 1
    outer loop
      vertex -7.36044 8.17459 2
      vertex -10.7596 -2.28703 2
      vertex -5.5 9.52628 2
    endloop
  endfacet
  facet normal 0 0 1
    outer loop
      vertex -8.89919 6.46564 2
      vertex -10.7596 -2.28703 2
      vertex -7.36044 8.17459 2
    endloop
  endfacet
  facet normal 0 0 1
    outer loop
      vertex -10.049 4.4741 2
      vertex -10.7596 -2.28703 2
      vertex -8.89919 6.46564 2
    endloop
  endfacet
  facet normal 0 0 1
    outer loop
      vertex -10.7596 2.28703 2
      vertex -10.7596 -2.28703 2
      vertex -10.049 4.4741 2
    endloop
  endfacet
  facet normal 0 0 1
    outer loop
      vertex -11 0 2
      vertex -10.7596 -2.28703 2
      vertex -10.7596 2.28703 2
    endloop
  endfacet
endsolid OpenSCAD_Model
