solid OpenSCAD_Model
  facet normal -1 0 0
    outer loop
      vertex 0 0 0
      vertex 0 0 3.3015
      vertex 0 28 0
    endloop
  endfacet
  facet normal -1 0 0
    outer loop
      vertex 0 28 0
      vertex 0 0 3.3015
      vertex 0 28 3.3015
    endloop
  endfacet
  facet normal 0 -1 0
    outer loop
      vertex 0 0 3.3015
      vertex 0 0 0
      vertex 51 0 0
    endloop
  endfacet
  facet normal 0 -1 0
    outer loop
      vertex 36.3438 0 20
      vertex 0 0 3.3015
      vertex 51 0 20
    endloop
  endfacet
  facet normal 0 -1 0
    outer loop
      vertex 51 0 20
      vertex 0 0 3.3015
      vertex 51 0 0
    endloop
  endfacet
  facet normal 0 0 -1
    outer loop
      vertex 0 0 0
      vertex 0 28 0
      vertex 51 0 0
    endloop
  endfacet
  facet normal 0 0 -1
    outer loop
      vertex 51 27.9233 0
      vertex 0 28 0
      vertex 51 28 0
    endloop
  endfacet
  facet normal 0 0 -1
    outer loop
      vertex 49.8502 24.9397 0
      vertex 0 28 0
      vertex 51 27.9233 0
    endloop
  endfacet
  facet normal 0 0 -1
    outer loop
      vertex 49.8502 24.9397 0
      vertex 51 27.9233 0
      vertex 52.1498 24.9397 0
    endloop
  endfacet
  facet normal 0 0 -1
    outer loop
      vertex 54.3992 24.4616 0
      vertex 52.4634 27.9233 0
      vertex 55.3262 27.3148 0
    endloop
  endfacet
  facet normal 0 0 -1
    outer loop
      vertex 56.5 23.5263 0
      vertex 55.3262 27.3148 0
      vertex 58 26.1244 0
    endloop
  endfacet
  facet normal 0 0 -1
    outer loop
      vertex 58.3604 22.1746 0
      vertex 58 26.1244 0
      vertex 60.3678 24.404 0
    endloop
  endfacet
  facet normal 0 0 -1
    outer loop
      vertex 59.8992 20.4656 0
      vertex 60.3678 24.404 0
      vertex 62.3262 22.229 0
    endloop
  endfacet
  facet normal 0 0 -1
    outer loop
      vertex 61.049 18.4741 0
      vertex 62.3262 22.229 0
      vertex 63.7896 19.6943 0
    endloop
  endfacet
  facet normal 0 0 -1
    outer loop
      vertex 61.8949 15 0
      vertex 63.7896 19.6943 0
      vertex 64.3402 18 0
    endloop
  endfacet
  facet normal 0 0 -1
    outer loop
      vertex 61.7596 16.287 0
      vertex 63.7896 19.6943 0
      vertex 61.8949 15 0
    endloop
  endfacet
  facet normal 0 0 -1
    outer loop
      vertex 61.049 18.4741 0
      vertex 63.7896 19.6943 0
      vertex 61.7596 16.287 0
    endloop
  endfacet
  facet normal 0 0 -1
    outer loop
      vertex 75 13 0
      vertex 61.7596 11.713 0
      vertex 61.8949 13 0
    endloop
  endfacet
  facet normal 0 0 -1
    outer loop
      vertex 75 13 0
      vertex 64.3402 10 0
      vertex 61.049 9.5259 0
    endloop
  endfacet
  facet normal 0 0 -1
    outer loop
      vertex 59.8992 20.4656 0
      vertex 62.3262 22.229 0
      vertex 61.049 18.4741 0
    endloop
  endfacet
  facet normal 0 0 -1
    outer loop
      vertex 58.3604 22.1746 0
      vertex 60.3678 24.404 0
      vertex 59.8992 20.4656 0
    endloop
  endfacet
  facet normal 0 0 -1
    outer loop
      vertex 56.5 23.5263 0
      vertex 58 26.1244 0
      vertex 58.3604 22.1746 0
    endloop
  endfacet
  facet normal 0 0 -1
    outer loop
      vertex 54.3992 24.4616 0
      vertex 55.3262 27.3148 0
      vertex 56.5 23.5263 0
    endloop
  endfacet
  facet normal 0 0 -1
    outer loop
      vertex 52.1498 24.9397 0
      vertex 52.4634 27.9233 0
      vertex 54.3992 24.4616 0
    endloop
  endfacet
  facet normal 0 0 -1
    outer loop
      vertex 51 27.9233 0
      vertex 52.4634 27.9233 0
      vertex 52.1498 24.9397 0
    endloop
  endfacet
  facet normal 0 0 -1
    outer loop
      vertex 47.6008 24.4616 0
      vertex 0 28 0
      vertex 49.8502 24.9397 0
    endloop
  endfacet
  facet normal 0 0 -1
    outer loop
      vertex 51 0.076693 0
      vertex 62.3262 5.77101 0
      vertex 60.3678 3.59597 0
    endloop
  endfacet
  facet normal 0 0 -1
    outer loop
      vertex 45.5 23.5263 0
      vertex 0 28 0
      vertex 47.6008 24.4616 0
    endloop
  endfacet
  facet normal 0 0 -1
    outer loop
      vertex 51 0.076693 0
      vertex 60.3678 3.59597 0
      vertex 58 1.87564 0
    endloop
  endfacet
  facet normal 0 0 -1
    outer loop
      vertex 43.6396 22.1746 0
      vertex 0 28 0
      vertex 45.5 23.5263 0
    endloop
  endfacet
  facet normal 0 0 -1
    outer loop
      vertex 51 0.076693 0
      vertex 58 1.87564 0
      vertex 55.3262 0.685209 0
    endloop
  endfacet
  facet normal 0 0 -1
    outer loop
      vertex 42.1008 20.4656 0
      vertex 0 28 0
      vertex 43.6396 22.1746 0
    endloop
  endfacet
  facet normal 0 0 -1
    outer loop
      vertex 51 0.076693 0
      vertex 55.3262 0.685209 0
      vertex 52.4634 0.076693 0
    endloop
  endfacet
  facet normal 0 0 -1
    outer loop
      vertex 40.951 18.4741 0
      vertex 0 28 0
      vertex 42.1008 20.4656 0
    endloop
  endfacet
  facet normal 0 0 -1
    outer loop
      vertex 40.2404 16.287 0
      vertex 0 28 0
      vertex 40.951 18.4741 0
    endloop
  endfacet
  facet normal 0 0 -1
    outer loop
      vertex 51 0.076693 0
      vertex 51 0 0
      vertex 49.8502 3.06026 0
    endloop
  endfacet
  facet normal 0 0 -1
    outer loop
      vertex 40 14 0
      vertex 0 28 0
      vertex 40.2404 16.287 0
    endloop
  endfacet
  facet normal 0 0 -1
    outer loop
      vertex 52.1498 3.06026 0
      vertex 51 0.076693 0
      vertex 49.8502 3.06026 0
    endloop
  endfacet
  facet normal 0 0 -1
    outer loop
      vertex 40.2404 11.713 0
      vertex 0 28 0
      vertex 40 14 0
    endloop
  endfacet
  facet normal 0 0 -1
    outer loop
      vertex 40.951 9.5259 0
      vertex 0 28 0
      vertex 40.2404 11.713 0
    endloop
  endfacet
  facet normal 0 0 -1
    outer loop
      vertex 42.1008 7.53436 0
      vertex 0 28 0
      vertex 40.951 9.5259 0
    endloop
  endfacet
  facet normal 0 0 -1
    outer loop
      vertex 43.6396 5.82541 0
      vertex 0 28 0
      vertex 42.1008 7.53436 0
    endloop
  endfacet
  facet normal 0 0 -1
    outer loop
      vertex 51 0 0
      vertex 0 28 0
      vertex 43.6396 5.82541 0
    endloop
  endfacet
  facet normal 0 0 -1
    outer loop
      vertex 51 0 0
      vertex 43.6396 5.82541 0
      vertex 45.5 4.47372 0
    endloop
  endfacet
  facet normal 0 0 -1
    outer loop
      vertex 49.8502 3.06026 0
      vertex 51 0 0
      vertex 47.6008 3.53838 0
    endloop
  endfacet
  facet normal 0 0 -1
    outer loop
      vertex 75 13 0
      vertex 61.049 9.5259 0
      vertex 61.7596 11.713 0
    endloop
  endfacet
  facet normal 0 0 -1
    outer loop
      vertex 64.3402 10 0
      vertex 75 13 0
      vertex 75 10 0
    endloop
  endfacet
  facet normal 0 0 -1
    outer loop
      vertex 51 0.076693 0
      vertex 58.3604 5.82541 0
      vertex 64.3402 10 0
    endloop
  endfacet
  facet normal 0 0 -1
    outer loop
      vertex 51 0.076693 0
      vertex 56.5 4.47372 0
      vertex 58.3604 5.82541 0
    endloop
  endfacet
  facet normal 0 0 -1
    outer loop
      vertex 51 0.076693 0
      vertex 54.3992 3.53838 0
      vertex 56.5 4.47372 0
    endloop
  endfacet
  facet normal 0 0 -1
    outer loop
      vertex 51 0.076693 0
      vertex 52.1498 3.06026 0
      vertex 54.3992 3.53838 0
    endloop
  endfacet
  facet normal 0 0 -1
    outer loop
      vertex 47.6008 3.53838 0
      vertex 51 0 0
      vertex 45.5 4.47372 0
    endloop
  endfacet
  facet normal 0 0 -1
    outer loop
      vertex 61.8949 15 0
      vertex 64.3402 18 0
      vertex 75 18 0
    endloop
  endfacet
  facet normal 0 0 -1
    outer loop
      vertex 61.8949 15 0
      vertex 75 18 0
      vertex 75 15 0
    endloop
  endfacet
  facet normal 0 0 -1
    outer loop
      vertex 64.3402 10 0
      vertex 59.8992 7.53436 0
      vertex 61.049 9.5259 0
    endloop
  endfacet
  facet normal 0 0 -1
    outer loop
      vertex 51 0.076693 0
      vertex 64.3402 10 0
      vertex 63.7896 8.30569 0
    endloop
  endfacet
  facet normal 0 0 -1
    outer loop
      vertex 51 0.076693 0
      vertex 63.7896 8.30569 0
      vertex 62.3262 5.77101 0
    endloop
  endfacet
  facet normal 0 0 -1
    outer loop
      vertex 59.8992 7.53436 0
      vertex 64.3402 10 0
      vertex 58.3604 5.82541 0
    endloop
  endfacet
  facet normal 0 1 0
    outer loop
      vertex 0 28 0
      vertex 0 28 3.3015
      vertex 51 28 0
    endloop
  endfacet
  facet normal 0 1 0
    outer loop
      vertex 51 28 0
      vertex 0 28 3.3015
      vertex 36.3438 28 20
    endloop
  endfacet
  facet normal 0 1 0
    outer loop
      vertex 51 28 0
      vertex 36.3438 28 20
      vertex 51 28 20
    endloop
  endfacet
  facet normal -0.4175 0 0.908677
    outer loop
      vertex 36.3438 0 20
      vertex 36.3438 28 20
      vertex 0 28 3.3015
    endloop
  endfacet
  facet normal -0.4175 0 0.908677
    outer loop
      vertex 0 0 3.3015
      vertex 36.3438 0 20
      vertex 0 28 3.3015
    endloop
  endfacet
  facet normal 0 0 1
    outer loop
      vertex 47.6008 3.53838 20
      vertex 36.3438 0 20
      vertex 51 0 20
    endloop
  endfacet
  facet normal 0 0 1
    outer loop
      vertex 40.951 18.4741 20
      vertex 42.1008 20.4656 20
      vertex 36.3438 28 20
    endloop
  endfacet
  facet normal 0 0 1
    outer loop
      vertex 40 14 20
      vertex 40.2404 16.287 20
      vertex 36.3438 28 20
    endloop
  endfacet
  facet normal 0 0 1
    outer loop
      vertex 52.1498 3.06026 20
      vertex 49.8502 3.06026 20
      vertex 52.4634 0.076693 20
    endloop
  endfacet
  facet normal 0 0 1
    outer loop
      vertex 49.8502 3.06026 20
      vertex 51 0 20
      vertex 51 0.076693 20
    endloop
  endfacet
  facet normal 0 0 1
    outer loop
      vertex 58.3604 5.82541 20
      vertex 56.5 4.47372 20
      vertex 60.3678 3.59597 20
    endloop
  endfacet
  facet normal 0 0 1
    outer loop
      vertex 61.049 9.5259 20
      vertex 59.8992 7.53436 20
      vertex 62.3262 5.77101 20
    endloop
  endfacet
  facet normal 0 0 1
    outer loop
      vertex 49.8502 3.06026 20
      vertex 47.6008 3.53838 20
      vertex 51 0 20
    endloop
  endfacet
  facet normal 0 0 1
    outer loop
      vertex 75 18 20
      vertex 64.3402 18 20
      vertex 75 15 20
    endloop
  endfacet
  facet normal 0 0 1
    outer loop
      vertex 75 10 20
      vertex 61.8949 13 20
      vertex 64.3402 10 20
    endloop
  endfacet
  facet normal 0 0 1
    outer loop
      vertex 61.8949 13 20
      vertex 61.7596 11.713 20
      vertex 64.3402 10 20
    endloop
  endfacet
  facet normal 0 0 1
    outer loop
      vertex 63.7896 8.30569 20
      vertex 61.049 9.5259 20
      vertex 62.3262 5.77101 20
    endloop
  endfacet
  facet normal 0 0 1
    outer loop
      vertex 62.3262 5.77101 20
      vertex 59.8992 7.53436 20
      vertex 60.3678 3.59597 20
    endloop
  endfacet
  facet normal 0 0 1
    outer loop
      vertex 59.8992 7.53436 20
      vertex 58.3604 5.82541 20
      vertex 60.3678 3.59597 20
    endloop
  endfacet
  facet normal 0 0 1
    outer loop
      vertex 60.3678 3.59597 20
      vertex 56.5 4.47372 20
      vertex 58 1.87564 20
    endloop
  endfacet
  facet normal 0 0 1
    outer loop
      vertex 43.6396 22.1746 20
      vertex 45.5 23.5263 20
      vertex 36.3438 28 20
    endloop
  endfacet
  facet normal 0 0 1
    outer loop
      vertex 58 1.87564 20
      vertex 54.3992 3.53838 20
      vertex 55.3262 0.685209 20
    endloop
  endfacet
  facet normal 0 0 1
    outer loop
      vertex 55.3262 0.685209 20
      vertex 52.1498 3.06026 20
      vertex 52.4634 0.076693 20
    endloop
  endfacet
  facet normal 0 0 1
    outer loop
      vertex 52.4634 0.076693 20
      vertex 49.8502 3.06026 20
      vertex 51 0.076693 20
    endloop
  endfacet
  facet normal 0 0 1
    outer loop
      vertex 42.1008 20.4656 20
      vertex 43.6396 22.1746 20
      vertex 36.3438 28 20
    endloop
  endfacet
  facet normal 0 0 1
    outer loop
      vertex 45.5 4.47372 20
      vertex 36.3438 0 20
      vertex 47.6008 3.53838 20
    endloop
  endfacet
  facet normal 0 0 1
    outer loop
      vertex 43.6396 5.82541 20
      vertex 36.3438 0 20
      vertex 45.5 4.47372 20
    endloop
  endfacet
  facet normal 0 0 1
    outer loop
      vertex 42.1008 7.53436 20
      vertex 36.3438 0 20
      vertex 43.6396 5.82541 20
    endloop
  endfacet
  facet normal 0 0 1
    outer loop
      vertex 40.951 9.5259 20
      vertex 36.3438 0 20
      vertex 42.1008 7.53436 20
    endloop
  endfacet
  facet normal 0 0 1
    outer loop
      vertex 40.2404 11.713 20
      vertex 36.3438 0 20
      vertex 40.951 9.5259 20
    endloop
  endfacet
  facet normal 0 0 1
    outer loop
      vertex 36.3438 28 20
      vertex 36.3438 0 20
      vertex 40.2404 11.713 20
    endloop
  endfacet
  facet normal 0 0 1
    outer loop
      vertex 40.2404 16.287 20
      vertex 40.951 18.4741 20
      vertex 36.3438 28 20
    endloop
  endfacet
  facet normal 0 0 1
    outer loop
      vertex 40.2404 11.713 20
      vertex 40 14 20
      vertex 36.3438 28 20
    endloop
  endfacet
  facet normal 0 0 1
    outer loop
      vertex 54.3992 3.53838 20
      vertex 52.1498 3.06026 20
      vertex 55.3262 0.685209 20
    endloop
  endfacet
  facet normal 0 0 1
    outer loop
      vertex 56.5 4.47372 20
      vertex 54.3992 3.53838 20
      vertex 58 1.87564 20
    endloop
  endfacet
  facet normal 0 0 1
    outer loop
      vertex 45.5 23.5263 20
      vertex 47.6008 24.4616 20
      vertex 36.3438 28 20
    endloop
  endfacet
  facet normal 0 0 1
    outer loop
      vertex 61.7596 11.713 20
      vertex 61.049 9.5259 20
      vertex 63.7896 8.30569 20
    endloop
  endfacet
  facet normal 0 0 1
    outer loop
      vertex 64.3402 18 20
      vertex 56.5 23.5263 20
      vertex 58.3604 22.1746 20
    endloop
  endfacet
  facet normal 0 0 1
    outer loop
      vertex 49.8502 24.9397 20
      vertex 36.3438 28 20
      vertex 47.6008 24.4616 20
    endloop
  endfacet
  facet normal 0 0 1
    outer loop
      vertex 61.8949 15 20
      vertex 64.3402 18 20
      vertex 61.7596 16.287 20
    endloop
  endfacet
  facet normal 0 0 1
    outer loop
      vertex 52.1498 24.9397 20
      vertex 36.3438 28 20
      vertex 49.8502 24.9397 20
    endloop
  endfacet
  facet normal 0 0 1
    outer loop
      vertex 60.3678 24.404 20
      vertex 36.3438 28 20
      vertex 52.1498 24.9397 20
    endloop
  endfacet
  facet normal 0 0 1
    outer loop
      vertex 60.3678 24.404 20
      vertex 52.1498 24.9397 20
      vertex 54.3992 24.4616 20
    endloop
  endfacet
  facet normal 0 0 1
    outer loop
      vertex 51 27.9233 20
      vertex 51 28 20
      vertex 36.3438 28 20
    endloop
  endfacet
  facet normal 0 0 1
    outer loop
      vertex 59.8992 20.4656 20
      vertex 61.049 18.4741 20
      vertex 64.3402 18 20
    endloop
  endfacet
  facet normal 0 0 1
    outer loop
      vertex 61.7596 11.713 20
      vertex 63.7896 8.30569 20
      vertex 64.3402 10 20
    endloop
  endfacet
  facet normal 0 0 1
    outer loop
      vertex 63.7896 19.6943 20
      vertex 62.3262 22.229 20
      vertex 56.5 23.5263 20
    endloop
  endfacet
  facet normal 0 0 1
    outer loop
      vertex 61.7596 16.287 20
      vertex 64.3402 18 20
      vertex 61.049 18.4741 20
    endloop
  endfacet
  facet normal 0 0 1
    outer loop
      vertex 64.3402 18 20
      vertex 58.3604 22.1746 20
      vertex 59.8992 20.4656 20
    endloop
  endfacet
  facet normal 0 0 1
    outer loop
      vertex 56.5 23.5263 20
      vertex 62.3262 22.229 20
      vertex 54.3992 24.4616 20
    endloop
  endfacet
  facet normal 0 0 1
    outer loop
      vertex 60.3678 24.404 20
      vertex 54.3992 24.4616 20
      vertex 62.3262 22.229 20
    endloop
  endfacet
  facet normal 0 0 1
    outer loop
      vertex 58 26.1244 20
      vertex 36.3438 28 20
      vertex 60.3678 24.404 20
    endloop
  endfacet
  facet normal 0 0 1
    outer loop
      vertex 55.3262 27.3148 20
      vertex 36.3438 28 20
      vertex 58 26.1244 20
    endloop
  endfacet
  facet normal 0 0 1
    outer loop
      vertex 51 27.9233 20
      vertex 36.3438 28 20
      vertex 55.3262 27.3148 20
    endloop
  endfacet
  facet normal 0 0 1
    outer loop
      vertex 52.4634 27.9233 20
      vertex 51 27.9233 20
      vertex 55.3262 27.3148 20
    endloop
  endfacet
  facet normal 0 0 1
    outer loop
      vertex 75 13 20
      vertex 61.8949 13 20
      vertex 75 10 20
    endloop
  endfacet
  facet normal 0 0 1
    outer loop
      vertex 64.3402 18 20
      vertex 63.7896 19.6943 20
      vertex 56.5 23.5263 20
    endloop
  endfacet
  facet normal 0 0 1
    outer loop
      vertex 61.8949 15 20
      vertex 75 15 20
      vertex 64.3402 18 20
    endloop
  endfacet
  facet normal 1 0 0
    outer loop
      vertex 51 0 20
      vertex 51 0 0
      vertex 51 0.076693 0
    endloop
  endfacet
  facet normal 1 0 0
    outer loop
      vertex 51 0.076693 20
      vertex 51 0 20
      vertex 51 0.076693 0
    endloop
  endfacet
  facet normal 0 -1 0
    outer loop
      vertex 52.4634 0.076693 0
      vertex 52.4634 0.076693 20
      vertex 51 0.076693 20
    endloop
  endfacet
  facet normal 0 -1 0
    outer loop
      vertex 51 0.076693 0
      vertex 52.4634 0.076693 0
      vertex 51 0.076693 20
    endloop
  endfacet
  facet normal 0.207912 -0.978148 0
    outer loop
      vertex 55.3262 0.685209 0
      vertex 55.3262 0.685209 20
      vertex 52.4634 0.076693 20
    endloop
  endfacet
  facet normal 0.207912 -0.978148 0
    outer loop
      vertex 52.4634 0.076693 0
      vertex 55.3262 0.685209 0
      vertex 52.4634 0.076693 20
    endloop
  endfacet
  facet normal 0.406736 -0.913546 0
    outer loop
      vertex 58 1.87564 0
      vertex 58 1.87564 20
      vertex 55.3262 0.685209 20
    endloop
  endfacet
  facet normal 0.406736 -0.913546 0
    outer loop
      vertex 55.3262 0.685209 0
      vertex 58 1.87564 0
      vertex 55.3262 0.685209 20
    endloop
  endfacet
  facet normal 0.587785 -0.809017 0
    outer loop
      vertex 60.3678 3.59597 0
      vertex 60.3678 3.59597 20
      vertex 58 1.87564 20
    endloop
  endfacet
  facet normal 0.587785 -0.809017 0
    outer loop
      vertex 58 1.87564 0
      vertex 60.3678 3.59597 0
      vertex 58 1.87564 20
    endloop
  endfacet
  facet normal 0.743145 -0.669131 0
    outer loop
      vertex 62.3262 5.77101 0
      vertex 62.3262 5.77101 20
      vertex 60.3678 3.59597 20
    endloop
  endfacet
  facet normal 0.743145 -0.669131 0
    outer loop
      vertex 60.3678 3.59597 0
      vertex 62.3262 5.77101 0
      vertex 60.3678 3.59597 20
    endloop
  endfacet
  facet normal 0.866026 -0.5 0
    outer loop
      vertex 63.7896 8.30569 0
      vertex 63.7896 8.30569 20
      vertex 62.3262 5.77101 20
    endloop
  endfacet
  facet normal 0.866026 -0.5 0
    outer loop
      vertex 62.3262 5.77101 0
      vertex 63.7896 8.30569 0
      vertex 62.3262 5.77101 20
    endloop
  endfacet
  facet normal 0.951057 -0.309017 0
    outer loop
      vertex 64.3402 10 0
      vertex 64.3402 10 20
      vertex 63.7896 8.30569 20
    endloop
  endfacet
  facet normal 0.951057 -0.309017 0
    outer loop
      vertex 63.7896 8.30569 0
      vertex 64.3402 10 0
      vertex 63.7896 8.30569 20
    endloop
  endfacet
  facet normal 0 -1 0
    outer loop
      vertex 69.175 10 11.4289
      vertex 75 10 20
      vertex 64.3402 10 20
    endloop
  endfacet
  facet normal 0 -1 0
    outer loop
      vertex 71.65 10 10
      vertex 70.825 10 8.57106
      vertex 75 10 0
    endloop
  endfacet
  facet normal 0 -1 0
    outer loop
      vertex 64.3402 10 0
      vertex 68.35 10 10
      vertex 64.3402 10 20
    endloop
  endfacet
  facet normal 0 -1 0
    outer loop
      vertex 70.825 10 11.4289
      vertex 75 10 20
      vertex 69.175 10 11.4289
    endloop
  endfacet
  facet normal 0 -1 0
    outer loop
      vertex 71.65 10 10
      vertex 75 10 20
      vertex 70.825 10 11.4289
    endloop
  endfacet
  facet normal 0 -1 0
    outer loop
      vertex 75 10 0
      vertex 75 10 20
      vertex 71.65 10 10
    endloop
  endfacet
  facet normal 0 -1 0
    outer loop
      vertex 64.3402 10 0
      vertex 69.175 10 8.57106
      vertex 68.35 10 10
    endloop
  endfacet
  facet normal 0 -1 0
    outer loop
      vertex 64.3402 10 0
      vertex 75 10 0
      vertex 69.175 10 8.57106
    endloop
  endfacet
  facet normal 0 -1 0
    outer loop
      vertex 68.35 10 10
      vertex 69.175 10 11.4289
      vertex 64.3402 10 20
    endloop
  endfacet
  facet normal 0 -1 0
    outer loop
      vertex 70.825 10 8.57106
      vertex 69.175 10 8.57106
      vertex 75 10 0
    endloop
  endfacet
  facet normal 1 0 0
    outer loop
      vertex 75 10 20
      vertex 75 10 0
      vertex 75 13 0
    endloop
  endfacet
  facet normal 1 0 0
    outer loop
      vertex 75 13 20
      vertex 75 10 20
      vertex 75 13 0
    endloop
  endfacet
  facet normal 0 1 0
    outer loop
      vertex 70.825 13 11.4289
      vertex 75 13 20
      vertex 71.65 13 10
    endloop
  endfacet
  facet normal 0 1 0
    outer loop
      vertex 69.175 13 8.57106
      vertex 75 13 0
      vertex 61.8949 13 0
    endloop
  endfacet
  facet normal 0 1 0
    outer loop
      vertex 61.8949 13 20
      vertex 69.175 13 8.57106
      vertex 61.8949 13 0
    endloop
  endfacet
  facet normal 0 1 0
    outer loop
      vertex 71.65 13 10
      vertex 75 13 0
      vertex 70.825 13 8.57106
    endloop
  endfacet
  facet normal 0 1 0
    outer loop
      vertex 75 13 20
      vertex 75 13 0
      vertex 71.65 13 10
    endloop
  endfacet
  facet normal 0 1 0
    outer loop
      vertex 68.35 13 10
      vertex 61.8949 13 20
      vertex 69.175 13 11.4289
    endloop
  endfacet
  facet normal 0 1 0
    outer loop
      vertex 75 13 20
      vertex 70.825 13 11.4289
      vertex 61.8949 13 20
    endloop
  endfacet
  facet normal 0 1 0
    outer loop
      vertex 70.825 13 11.4289
      vertex 69.175 13 11.4289
      vertex 61.8949 13 20
    endloop
  endfacet
  facet normal 0 1 0
    outer loop
      vertex 61.8949 13 20
      vertex 68.35 13 10
      vertex 69.175 13 8.57106
    endloop
  endfacet
  facet normal 0 1 0
    outer loop
      vertex 70.825 13 8.57106
      vertex 75 13 0
      vertex 69.175 13 8.57106
    endloop
  endfacet
  facet normal -0.994522 0.104528 0
    outer loop
      vertex 61.8949 13 20
      vertex 61.8949 13 0
      vertex 61.7596 11.713 20
    endloop
  endfacet
  facet normal -0.994522 0.104528 0
    outer loop
      vertex 61.7596 11.713 20
      vertex 61.8949 13 0
      vertex 61.7596 11.713 0
    endloop
  endfacet
  facet normal -0.951056 0.309017 0
    outer loop
      vertex 61.7596 11.713 20
      vertex 61.7596 11.713 0
      vertex 61.049 9.5259 20
    endloop
  endfacet
  facet normal -0.951056 0.309017 0
    outer loop
      vertex 61.049 9.5259 20
      vertex 61.7596 11.713 0
      vertex 61.049 9.5259 0
    endloop
  endfacet
  facet normal -0.866025 0.5 0
    outer loop
      vertex 61.049 9.5259 20
      vertex 61.049 9.5259 0
      vertex 59.8992 7.53436 20
    endloop
  endfacet
  facet normal -0.866025 0.5 0
    outer loop
      vertex 59.8992 7.53436 20
      vertex 61.049 9.5259 0
      vertex 59.8992 7.53436 0
    endloop
  endfacet
  facet normal -0.743145 0.669131 0
    outer loop
      vertex 59.8992 7.53436 20
      vertex 59.8992 7.53436 0
      vertex 58.3604 5.82541 20
    endloop
  endfacet
  facet normal -0.743145 0.669131 0
    outer loop
      vertex 58.3604 5.82541 20
      vertex 59.8992 7.53436 0
      vertex 58.3604 5.82541 0
    endloop
  endfacet
  facet normal -0.587785 0.809017 0
    outer loop
      vertex 58.3604 5.82541 20
      vertex 58.3604 5.82541 0
      vertex 56.5 4.47372 20
    endloop
  endfacet
  facet normal -0.587785 0.809017 0
    outer loop
      vertex 56.5 4.47372 20
      vertex 58.3604 5.82541 0
      vertex 56.5 4.47372 0
    endloop
  endfacet
  facet normal -0.406737 0.913545 0
    outer loop
      vertex 56.5 4.47372 20
      vertex 56.5 4.47372 0
      vertex 54.3992 3.53838 20
    endloop
  endfacet
  facet normal -0.406737 0.913545 0
    outer loop
      vertex 54.3992 3.53838 20
      vertex 56.5 4.47372 0
      vertex 54.3992 3.53838 0
    endloop
  endfacet
  facet normal -0.207912 0.978148 0
    outer loop
      vertex 54.3992 3.53838 20
      vertex 54.3992 3.53838 0
      vertex 52.1498 3.06026 20
    endloop
  endfacet
  facet normal -0.207912 0.978148 0
    outer loop
      vertex 52.1498 3.06026 20
      vertex 54.3992 3.53838 0
      vertex 52.1498 3.06026 0
    endloop
  endfacet
  facet normal 0 1 0
    outer loop
      vertex 52.1498 3.06026 20
      vertex 52.1498 3.06026 0
      vertex 49.8502 3.06026 20
    endloop
  endfacet
  facet normal 0 1 0
    outer loop
      vertex 49.8502 3.06026 20
      vertex 52.1498 3.06026 0
      vertex 49.8502 3.06026 0
    endloop
  endfacet
  facet normal 0.207912 0.978148 0
    outer loop
      vertex 49.8502 3.06026 20
      vertex 49.8502 3.06026 0
      vertex 47.6008 3.53838 20
    endloop
  endfacet
  facet normal 0.207912 0.978148 0
    outer loop
      vertex 47.6008 3.53838 20
      vertex 49.8502 3.06026 0
      vertex 47.6008 3.53838 0
    endloop
  endfacet
  facet normal 0.406737 0.913545 0
    outer loop
      vertex 47.6008 3.53838 20
      vertex 47.6008 3.53838 0
      vertex 45.5 4.47372 20
    endloop
  endfacet
  facet normal 0.406737 0.913545 0
    outer loop
      vertex 45.5 4.47372 20
      vertex 47.6008 3.53838 0
      vertex 45.5 4.47372 0
    endloop
  endfacet
  facet normal 0.587785 0.809017 0
    outer loop
      vertex 45.5 4.47372 20
      vertex 45.5 4.47372 0
      vertex 43.6396 5.82541 20
    endloop
  endfacet
  facet normal 0.587785 0.809017 0
    outer loop
      vertex 43.6396 5.82541 20
      vertex 45.5 4.47372 0
      vertex 43.6396 5.82541 0
    endloop
  endfacet
  facet normal 0.743145 0.669131 0
    outer loop
      vertex 42.1008 7.53436 20
      vertex 43.6396 5.82541 20
      vertex 43.6396 5.82541 0
    endloop
  endfacet
  facet normal 0.743145 0.669131 0
    outer loop
      vertex 42.1008 7.53436 0
      vertex 42.1008 7.53436 20
      vertex 43.6396 5.82541 0
    endloop
  endfacet
  facet normal 0.866025 0.5 0
    outer loop
      vertex 40.951 9.5259 20
      vertex 42.1008 7.53436 20
      vertex 42.1008 7.53436 0
    endloop
  endfacet
  facet normal 0.866025 0.5 0
    outer loop
      vertex 40.951 9.5259 0
      vertex 40.951 9.5259 20
      vertex 42.1008 7.53436 0
    endloop
  endfacet
  facet normal 0.951056 0.309017 0
    outer loop
      vertex 40.2404 11.713 20
      vertex 40.951 9.5259 20
      vertex 40.951 9.5259 0
    endloop
  endfacet
  facet normal 0.951056 0.309017 0
    outer loop
      vertex 40.2404 11.713 0
      vertex 40.2404 11.713 20
      vertex 40.951 9.5259 0
    endloop
  endfacet
  facet normal 0.994522 0.104528 0
    outer loop
      vertex 40 14 20
      vertex 40.2404 11.713 20
      vertex 40.2404 11.713 0
    endloop
  endfacet
  facet normal 0.994522 0.104528 0
    outer loop
      vertex 40 14 0
      vertex 40 14 20
      vertex 40.2404 11.713 0
    endloop
  endfacet
  facet normal 0.994522 -0.104528 0
    outer loop
      vertex 40.2404 16.287 0
      vertex 40.2404 16.287 20
      vertex 40 14 20
    endloop
  endfacet
  facet normal 0.994522 -0.104528 0
    outer loop
      vertex 40 14 0
      vertex 40.2404 16.287 0
      vertex 40 14 20
    endloop
  endfacet
  facet normal 0.951056 -0.309017 0
    outer loop
      vertex 40.951 18.4741 0
      vertex 40.951 18.4741 20
      vertex 40.2404 16.287 20
    endloop
  endfacet
  facet normal 0.951056 -0.309017 0
    outer loop
      vertex 40.2404 16.287 0
      vertex 40.951 18.4741 0
      vertex 40.2404 16.287 20
    endloop
  endfacet
  facet normal 0.866025 -0.5 0
    outer loop
      vertex 42.1008 20.4656 0
      vertex 42.1008 20.4656 20
      vertex 40.951 18.4741 20
    endloop
  endfacet
  facet normal 0.866025 -0.5 0
    outer loop
      vertex 40.951 18.4741 0
      vertex 42.1008 20.4656 0
      vertex 40.951 18.4741 20
    endloop
  endfacet
  facet normal 0.743145 -0.669131 0
    outer loop
      vertex 43.6396 22.1746 0
      vertex 43.6396 22.1746 20
      vertex 42.1008 20.4656 20
    endloop
  endfacet
  facet normal 0.743145 -0.669131 0
    outer loop
      vertex 42.1008 20.4656 0
      vertex 43.6396 22.1746 0
      vertex 42.1008 20.4656 20
    endloop
  endfacet
  facet normal 0.587785 -0.809017 0
    outer loop
      vertex 45.5 23.5263 0
      vertex 45.5 23.5263 20
      vertex 43.6396 22.1746 20
    endloop
  endfacet
  facet normal 0.587785 -0.809017 0
    outer loop
      vertex 43.6396 22.1746 0
      vertex 45.5 23.5263 0
      vertex 43.6396 22.1746 20
    endloop
  endfacet
  facet normal 0.406737 -0.913545 0
    outer loop
      vertex 47.6008 24.4616 0
      vertex 47.6008 24.4616 20
      vertex 45.5 23.5263 20
    endloop
  endfacet
  facet normal 0.406737 -0.913545 0
    outer loop
      vertex 45.5 23.5263 0
      vertex 47.6008 24.4616 0
      vertex 45.5 23.5263 20
    endloop
  endfacet
  facet normal 0.207912 -0.978148 0
    outer loop
      vertex 49.8502 24.9397 0
      vertex 49.8502 24.9397 20
      vertex 47.6008 24.4616 20
    endloop
  endfacet
  facet normal 0.207912 -0.978148 0
    outer loop
      vertex 47.6008 24.4616 0
      vertex 49.8502 24.9397 0
      vertex 47.6008 24.4616 20
    endloop
  endfacet
  facet normal 0 -1 0
    outer loop
      vertex 52.1498 24.9397 0
      vertex 52.1498 24.9397 20
      vertex 49.8502 24.9397 20
    endloop
  endfacet
  facet normal 0 -1 0
    outer loop
      vertex 49.8502 24.9397 0
      vertex 52.1498 24.9397 0
      vertex 49.8502 24.9397 20
    endloop
  endfacet
  facet normal -0.207912 -0.978148 0
    outer loop
      vertex 54.3992 24.4616 0
      vertex 54.3992 24.4616 20
      vertex 52.1498 24.9397 20
    endloop
  endfacet
  facet normal -0.207912 -0.978148 0
    outer loop
      vertex 52.1498 24.9397 0
      vertex 54.3992 24.4616 0
      vertex 52.1498 24.9397 20
    endloop
  endfacet
  facet normal -0.406737 -0.913545 0
    outer loop
      vertex 56.5 23.5263 0
      vertex 56.5 23.5263 20
      vertex 54.3992 24.4616 20
    endloop
  endfacet
  facet normal -0.406737 -0.913545 0
    outer loop
      vertex 54.3992 24.4616 0
      vertex 56.5 23.5263 0
      vertex 54.3992 24.4616 20
    endloop
  endfacet
  facet normal -0.587785 -0.809017 0
    outer loop
      vertex 58.3604 22.1746 0
      vertex 58.3604 22.1746 20
      vertex 56.5 23.5263 20
    endloop
  endfacet
  facet normal -0.587785 -0.809017 0
    outer loop
      vertex 56.5 23.5263 0
      vertex 58.3604 22.1746 0
      vertex 56.5 23.5263 20
    endloop
  endfacet
  facet normal -0.743145 -0.669131 0
    outer loop
      vertex 59.8992 20.4656 20
      vertex 58.3604 22.1746 20
      vertex 59.8992 20.4656 0
    endloop
  endfacet
  facet normal -0.743145 -0.669131 0
    outer loop
      vertex 59.8992 20.4656 0
      vertex 58.3604 22.1746 20
      vertex 58.3604 22.1746 0
    endloop
  endfacet
  facet normal -0.866025 -0.5 0
    outer loop
      vertex 61.049 18.4741 20
      vertex 59.8992 20.4656 20
      vertex 61.049 18.4741 0
    endloop
  endfacet
  facet normal -0.866025 -0.5 0
    outer loop
      vertex 61.049 18.4741 0
      vertex 59.8992 20.4656 20
      vertex 59.8992 20.4656 0
    endloop
  endfacet
  facet normal -0.951056 -0.309017 0
    outer loop
      vertex 61.7596 16.287 20
      vertex 61.049 18.4741 20
      vertex 61.7596 16.287 0
    endloop
  endfacet
  facet normal -0.951056 -0.309017 0
    outer loop
      vertex 61.7596 16.287 0
      vertex 61.049 18.4741 20
      vertex 61.049 18.4741 0
    endloop
  endfacet
  facet normal -0.994522 -0.104528 0
    outer loop
      vertex 61.8949 15 20
      vertex 61.7596 16.287 20
      vertex 61.8949 15 0
    endloop
  endfacet
  facet normal -0.994522 -0.104528 0
    outer loop
      vertex 61.8949 15 0
      vertex 61.7596 16.287 20
      vertex 61.7596 16.287 0
    endloop
  endfacet
  facet normal 0 -1 0
    outer loop
      vertex 69.175 15 11.4289
      vertex 75 15 20
      vertex 61.8949 15 20
    endloop
  endfacet
  facet normal 0 -1 0
    outer loop
      vertex 71.65 15 10
      vertex 70.825 15 8.57106
      vertex 75 15 0
    endloop
  endfacet
  facet normal 0 -1 0
    outer loop
      vertex 61.8949 15 0
      vertex 68.35 15 10
      vertex 61.8949 15 20
    endloop
  endfacet
  facet normal 0 -1 0
    outer loop
      vertex 70.825 15 11.4289
      vertex 75 15 20
      vertex 69.175 15 11.4289
    endloop
  endfacet
  facet normal 0 -1 0
    outer loop
      vertex 71.65 15 10
      vertex 75 15 20
      vertex 70.825 15 11.4289
    endloop
  endfacet
  facet normal 0 -1 0
    outer loop
      vertex 75 15 0
      vertex 75 15 20
      vertex 71.65 15 10
    endloop
  endfacet
  facet normal 0 -1 0
    outer loop
      vertex 61.8949 15 0
      vertex 69.175 15 8.57106
      vertex 68.35 15 10
    endloop
  endfacet
  facet normal 0 -1 0
    outer loop
      vertex 61.8949 15 0
      vertex 75 15 0
      vertex 69.175 15 8.57106
    endloop
  endfacet
  facet normal 0 -1 0
    outer loop
      vertex 68.35 15 10
      vertex 69.175 15 11.4289
      vertex 61.8949 15 20
    endloop
  endfacet
  facet normal 0 -1 0
    outer loop
      vertex 70.825 15 8.57106
      vertex 69.175 15 8.57106
      vertex 75 15 0
    endloop
  endfacet
  facet normal 1 0 0
    outer loop
      vertex 75 15 20
      vertex 75 15 0
      vertex 75 18 0
    endloop
  endfacet
  facet normal 1 0 0
    outer loop
      vertex 75 18 20
      vertex 75 15 20
      vertex 75 18 0
    endloop
  endfacet
  facet normal 0 1 0
    outer loop
      vertex 70.825 18 8.57106
      vertex 75 18 0
      vertex 69.175 18 8.57106
    endloop
  endfacet
  facet normal 0 1 0
    outer loop
      vertex 70.825 18 11.4289
      vertex 64.3402 18 20
      vertex 75 18 20
    endloop
  endfacet
  facet normal 0 1 0
    outer loop
      vertex 64.3402 18 0
      vertex 64.3402 18 20
      vertex 68.35 18 10
    endloop
  endfacet
  facet normal 0 1 0
    outer loop
      vertex 64.3402 18 0
      vertex 68.35 18 10
      vertex 69.175 18 8.57106
    endloop
  endfacet
  facet normal 0 1 0
    outer loop
      vertex 64.3402 18 0
      vertex 69.175 18 8.57106
      vertex 75 18 0
    endloop
  endfacet
  facet normal 0 1 0
    outer loop
      vertex 75 18 0
      vertex 70.825 18 8.57106
      vertex 71.65 18 10
    endloop
  endfacet
  facet normal 0 1 0
    outer loop
      vertex 75 18 0
      vertex 71.65 18 10
      vertex 75 18 20
    endloop
  endfacet
  facet normal 0 1 0
    outer loop
      vertex 69.175 18 11.4289
      vertex 64.3402 18 20
      vertex 70.825 18 11.4289
    endloop
  endfacet
  facet normal 0 1 0
    outer loop
      vertex 70.825 18 11.4289
      vertex 75 18 20
      vertex 71.65 18 10
    endloop
  endfacet
  facet normal 0 1 0
    outer loop
      vertex 68.35 18 10
      vertex 64.3402 18 20
      vertex 69.175 18 11.4289
    endloop
  endfacet
  facet normal 0.951057 0.309017 0
    outer loop
      vertex 64.3402 18 0
      vertex 63.7896 19.6943 0
      vertex 63.7896 19.6943 20
    endloop
  endfacet
  facet normal 0.951057 0.309017 0
    outer loop
      vertex 64.3402 18 20
      vertex 64.3402 18 0
      vertex 63.7896 19.6943 20
    endloop
  endfacet
  facet normal 0.866026 0.5 0
    outer loop
      vertex 63.7896 19.6943 0
      vertex 62.3262 22.229 0
      vertex 62.3262 22.229 20
    endloop
  endfacet
  facet normal 0.866026 0.5 0
    outer loop
      vertex 63.7896 19.6943 20
      vertex 63.7896 19.6943 0
      vertex 62.3262 22.229 20
    endloop
  endfacet
  facet normal 0.743145 0.669131 0
    outer loop
      vertex 62.3262 22.229 0
      vertex 60.3678 24.404 0
      vertex 60.3678 24.404 20
    endloop
  endfacet
  facet normal 0.743145 0.669131 0
    outer loop
      vertex 62.3262 22.229 20
      vertex 62.3262 22.229 0
      vertex 60.3678 24.404 20
    endloop
  endfacet
  facet normal 0.587785 0.809017 0
    outer loop
      vertex 58 26.1244 0
      vertex 58 26.1244 20
      vertex 60.3678 24.404 0
    endloop
  endfacet
  facet normal 0.587785 0.809017 0
    outer loop
      vertex 60.3678 24.404 0
      vertex 58 26.1244 20
      vertex 60.3678 24.404 20
    endloop
  endfacet
  facet normal 0.406736 0.913546 0
    outer loop
      vertex 55.3262 27.3148 0
      vertex 55.3262 27.3148 20
      vertex 58 26.1244 0
    endloop
  endfacet
  facet normal 0.406736 0.913546 0
    outer loop
      vertex 58 26.1244 0
      vertex 55.3262 27.3148 20
      vertex 58 26.1244 20
    endloop
  endfacet
  facet normal 0.207912 0.978148 0
    outer loop
      vertex 52.4634 27.9233 0
      vertex 52.4634 27.9233 20
      vertex 55.3262 27.3148 0
    endloop
  endfacet
  facet normal 0.207912 0.978148 0
    outer loop
      vertex 55.3262 27.3148 0
      vertex 52.4634 27.9233 20
      vertex 55.3262 27.3148 20
    endloop
  endfacet
  facet normal 0 1 0
    outer loop
      vertex 51 27.9233 0
      vertex 51 27.9233 20
      vertex 52.4634 27.9233 0
    endloop
  endfacet
  facet normal 0 1 0
    outer loop
      vertex 52.4634 27.9233 0
      vertex 51 27.9233 20
      vertex 52.4634 27.9233 20
    endloop
  endfacet
  facet normal 1 0 0
    outer loop
      vertex 51 28 0
      vertex 51 28 20
      vertex 51 27.9233 20
    endloop
  endfacet
  facet normal 1 0 0
    outer loop
      vertex 51 27.9233 0
      vertex 51 28 0
      vertex 51 27.9233 20
    endloop
  endfacet
  facet normal 0.866025 -1.11022e-16 0.5
    outer loop
      vertex 69.175 10 8.57106
      vertex 69.175 13 8.57106
      vertex 68.35 13 10
    endloop
  endfacet
  facet normal 0.866025 -1.11022e-16 0.5
    outer loop
      vertex 68.35 10 10
      vertex 69.175 10 8.57106
      vertex 68.35 13 10
    endloop
  endfacet
  facet normal 0.866025 1.11022e-16 -0.5
    outer loop
      vertex 68.35 13 10
      vertex 69.175 13 11.4289
      vertex 69.175 10 11.4289
    endloop
  endfacet
  facet normal 0.866025 1.11022e-16 -0.5
    outer loop
      vertex 68.35 10 10
      vertex 68.35 13 10
      vertex 69.175 10 11.4289
    endloop
  endfacet
  facet normal 0 -2.22045e-16 1
    outer loop
      vertex 70.825 10 8.57106
      vertex 70.825 13 8.57106
      vertex 69.175 13 8.57106
    endloop
  endfacet
  facet normal 0 -2.22045e-16 1
    outer loop
      vertex 69.175 10 8.57106
      vertex 70.825 10 8.57106
      vertex 69.175 13 8.57106
    endloop
  endfacet
  facet normal -0.866025 -1.11022e-16 0.5
    outer loop
      vertex 71.65 13 10
      vertex 70.825 13 8.57106
      vertex 71.65 10 10
    endloop
  endfacet
  facet normal -0.866025 -1.11022e-16 0.5
    outer loop
      vertex 71.65 10 10
      vertex 70.825 13 8.57106
      vertex 70.825 10 8.57106
    endloop
  endfacet
  facet normal -0.866025 1.11022e-16 -0.5
    outer loop
      vertex 71.65 13 10
      vertex 71.65 10 10
      vertex 70.825 13 11.4289
    endloop
  endfacet
  facet normal -0.866025 1.11022e-16 -0.5
    outer loop
      vertex 70.825 13 11.4289
      vertex 71.65 10 10
      vertex 70.825 10 11.4289
    endloop
  endfacet
  facet normal 0 2.22045e-16 -1
    outer loop
      vertex 70.825 13 11.4289
      vertex 70.825 10 11.4289
      vertex 69.175 13 11.4289
    endloop
  endfacet
  facet normal 0 2.22045e-16 -1
    outer loop
      vertex 69.175 13 11.4289
      vertex 70.825 10 11.4289
      vertex 69.175 10 11.4289
    endloop
  endfacet
  facet normal 0.866025 -1.11022e-16 0.5
    outer loop
      vertex 69.175 15 8.57106
      vertex 69.175 18 8.57106
      vertex 68.35 18 10
    endloop
  endfacet
  facet normal 0.866025 -1.11022e-16 0.5
    outer loop
      vertex 68.35 15 10
      vertex 69.175 15 8.57106
      vertex 68.35 18 10
    endloop
  endfacet
  facet normal 0.866025 1.11022e-16 -0.5
    outer loop
      vertex 68.35 18 10
      vertex 69.175 18 11.4289
      vertex 69.175 15 11.4289
    endloop
  endfacet
  facet normal 0.866025 1.11022e-16 -0.5
    outer loop
      vertex 68.35 15 10
      vertex 68.35 18 10
      vertex 69.175 15 11.4289
    endloop
  endfacet
  facet normal 0 -2.22045e-16 1
    outer loop
      vertex 70.825 15 8.57106
      vertex 70.825 18 8.57106
      vertex 69.175 18 8.57106
    endloop
  endfacet
  facet normal 0 -2.22045e-16 1
    outer loop
      vertex 69.175 15 8.57106
      vertex 70.825 15 8.57106
      vertex 69.175 18 8.57106
    endloop
  endfacet
  facet normal -0.866025 -1.11022e-16 0.5
    outer loop
      vertex 71.65 18 10
      vertex 70.825 18 8.57106
      vertex 71.65 15 10
    endloop
  endfacet
  facet normal -0.866025 -1.11022e-16 0.5
    outer loop
      vertex 71.65 15 10
      vertex 70.825 18 8.57106
      vertex 70.825 15 8.57106
    endloop
  endfacet
  facet normal -0.866025 1.11022e-16 -0.5
    outer loop
      vertex 71.65 18 10
      vertex 71.65 15 10
      vertex 70.825 18 11.4289
    endloop
  endfacet
  facet normal -0.866025 1.11022e-16 -0.5
    outer loop
      vertex 70.825 18 11.4289
      vertex 71.65 15 10
      vertex 70.825 15 11.4289
    endloop
  endfacet
  facet normal 0 2.22045e-16 -1
    outer loop
      vertex 70.825 18 11.4289
      vertex 70.825 15 11.4289
      vertex 69.175 18 11.4289
    endloop
  endfacet
  facet normal 0 2.22045e-16 -1
    outer loop
      vertex 69.175 18 11.4289
      vertex 70.825 15 11.4289
      vertex 69.175 15 11.4289
    endloop
  endfacet
endsolid OpenSCAD_Model
